<svg xmlns="http://www.w3.org/2000/svg" viewBox="0 0 600 600" fill="none" stroke="#C29B40" stroke-width="0.6">
<path d="M576 300 L576 299 L576 299 L576 298 L576 298 L575 297 L575 296 L575 296 L574 295 L574 295 L573 294 L573 293 L572 293 L571 292 L570 292 L570 291 L569 290 L568 290 L567 289 L566 289 L565 288 L563 288 L562 287 L561 287 L560 286 L558 286 L557 285 L555 285 L554 284 L552 284 L551 283 L549 283 L547 283 L545 282 L543 282 L542 282 L540 281 L538 281 L536 281 L534 280 L531 280 L529 280 L527 279 L525 279 L522 279 L520 279 L518 279 L515 278 L513 278 L510 278 L508 278 L505 278 L502 278 L500 278 L497 278 L494 278 L491 278 L488 278 L486 278 L483 278 L480 278 L477 278 L474 278 L471 279 L467 279 L464 279 L461 279 L458 279 L455 280 L452 280 L448 280 L445 281 L442 281 L438 281 L435 282 L431 282 L428 283 L425 283 L421 284 L418 284 L414 285 L411 285 L407 286 L404 286 L400 287 L396 288 L393 288 L389 289 L385 290 L382 291 L378 291 L374 292 L371 293 L367 294 L363 295 L360 296 L356 296 L352 297 L348 298 L345 299 L341 300 L337 301 L334 302 L330 303 L326 305 L322 306 L319 307 L315 308 L311 309 L307 310 L304 311 L300 313 L296 314 L293 315 L289 316 L285 318 L282 319 L278 320 L274 322 L271 323 L267 324 L263 326 L260 327 L256 329 L253 330 L249 331 L246 333 L242 334 L239 336 L235 337 L232 339 L228 340 L225 342 L222 344 L218 345 L215 347 L212 348 L208 350 L205 351 L202 353 L199 355 L195 356 L192 358 L189 360 L186 361 L183 363 L180 365 L177 366 L174 368 L171 370 L168 371 L166 373 L163 375 L160 376 L157 378 L155 380 L152 381 L149 383 L147 385 L144 386 L142 388 L139 390 L137 391 L135 393 L132 395 L130 396 L128 398 L126 399 L123 401 L121 403 L119 404 L117 406 L115 407 L113 409 L111 411 L110 412 L108 414 L106 415 L104 417 L103 418 L101 420 L99 421 L98 423 L96 424 L95 426 L94 427 L92 428 L91 430 L90 431 L89 433 L88 434 L87 435 L85 437 L85 438 L84 439 L83 440 L82 441 L81 443 L80 444 L80 445 L79 446 L78 447 L78 448 L77 449 L77 450 L77 451 L76 452 L76 453 L76 454 L76 455 L75 456 L75 456 L75 457 L75 458 L75 459 L75 459 L76 460 L76 461 L76 461 L76 462 L77 462 L77 463 L78 463 L78 464 L79 464 L79 464 L80 465 L80 465 L81 465 L82 465 L83 465 L83 466 L84 466 L85 466 L86 466 L87 466 L88 466 L89 466 L90 465 L92 465 L93 465 L94 465 L95 464 L97 464 L98 464 L99 463 L101 463 L102 462 L104 462 L105 461 L107 461 L109 460 L110 459 L112 459 L114 458 L115 457 L117 456 L119 455 L121 454 L123 453 L125 452 L126 451 L128 450 L130 449 L132 448 L134 446 L136 445 L139 444 L141 443 L143 441 L145 440 L147 438 L149 437 L152 435 L154 434 L156 432 L158 430 L161 429 L163 427 L165 425 L168 423 L170 421 L172 420 L175 418 L177 416 L179 414 L182 412 L184 410 L187 407 L189 405 L192 403 L194 401 L197 399 L199 396 L202 394 L204 392 L207 389 L209 387 L212 384 L214 382 L217 380 L219 377 L222 374 L224 372 L227 369 L229 367 L232 364 L234 361 L237 358 L239 356 L242 353 L244 350 L247 347 L249 344 L252 342 L254 339 L257 336 L259 333 L262 330 L264 327 L267 324 L269 321 L271 318 L274 315 L276 312 L279 309 L281 305 L283 302 L286 299 L288 296 L290 293 L293 290 L295 287 L297 283 L299 280 L302 277 L304 274 L306 271 L308 267 L310 264 L312 261 L314 258 L317 254 L319 251 L321 248 L323 245 L325 241 L327 238 L329 235 L330 232 L332 228 L334 225 L336 222 L338 219 L340 215 L341 212 L343 209 L345 206 L347 203 L348 199 L350 196 L351 193 L353 190 L355 187 L356 184 L358 180 L359 177 L360 174 L362 171 L363 168 L365 165 L366 162 L367 159 L368 156 L370 153 L371 150 L372 147 L373 144 L374 142 L375 139 L376 136 L377 133 L378 130 L379 128 L380 125 L381 122 L382 120 L383 117 L383 114 L384 112 L385 109 L386 107 L386 104 L387 102 L388 100 L388 97 L389 95 L389 93 L390 90 L390 88 L391 86 L391 84 L391 82 L392 80 L392 78 L392 76 L392 74 L393 72 L393 70 L393 69 L393 67 L393 65 L393 63 L393 62 L393 60 L393 59 L393 57 L393 56 L393 55 L393 53 L393 52 L393 51 L393 50 L392 48 L392 47 L392 46 L392 45 L391 45 L391 44 L391 43 L390 42 L390 41 L389 41 L389 40 L388 40 L388 39 L387 39 L387 38 L386 38 L386 38 L385 38 L385 37 L384 37 L383 37 L383 37 L382 37 L381 37 L381 38 L380 38 L379 38 L379 38 L378 39 L377 39 L376 40 L376 40 L375 41 L374 42 L373 42 L372 43 L371 44 L371 45 L370 46 L369 47 L368 48 L367 49 L366 50 L365 51 L364 52 L364 54 L363 55 L362 57 L361 58 L360 60 L359 61 L358 63 L357 65 L356 66 L355 68 L354 70 L353 72 L352 74 L352 76 L351 78 L350 80 L349 82 L348 84 L347 86 L346 89 L345 91 L344 93 L343 96 L342 98 L342 101 L341 103 L340 106 L339 109 L338 111 L337 114 L336 117 L336 120 L335 122 L334 125 L333 128 L332 131 L331 134 L331 137 L330 140 L329 143 L328 147 L328 150 L327 153 L326 156 L326 159 L325 163 L324 166 L324 169 L323 173 L322 176 L322 180 L321 183 L321 187 L320 190 L320 194 L319 197 L319 201 L318 205 L318 208 L317 212 L317 216 L316 219 L316 223 L316 227 L315 231 L315 234 L315 238 L314 242 L314 246 L314 250 L313 253 L313 257 L313 261 L313 265 L313 269 L312 273 L312 277 L312 280 L312 284 L312 288 L312 292 L312 296 L312 300 L312 304 L312 308 L312 312 L312 316 L312 320 L312 323 L312 327 L313 331 L313 335 L313 339 L313 343 L313 347 L314 350 L314 354 L314 358 L315 362 L315 366 L315 369 L316 373 L316 377 L316 381 L317 384 L317 388 L318 392 L318 395 L319 399 L319 403 L320 406 L320 410 L321 413 L321 417 L322 420 L322 424 L323 427 L324 431 L324 434 L325 437 L326 441 L326 444 L327 447 L328 450 L328 453 L329 457 L330 460 L331 463 L331 466 L332 469 L333 472 L334 475 L335 478 L336 480 L336 483 L337 486 L338 489 L339 491 L340 494 L341 497 L342 499 L342 502 L343 504 L344 507 L345 509 L346 511 L347 514 L348 516 L349 518 L350 520 L351 522 L352 524 L352 526 L353 528 L354 530 L355 532 L356 534 L357 535 L358 537 L359 539 L360 540 L361 542 L362 543 L363 545 L364 546 L364 548 L365 549 L366 550 L367 551 L368 552 L369 553 L370 554 L371 555 L371 556 L372 557 L373 558 L374 558 L375 559 L376 560 L376 560 L377 561 L378 561 L379 562 L379 562 L380 562 L381 562 L381 563 L382 563 L383 563 L383 563 L384 563 L385 563 L385 562 L386 562 L386 562 L387 562 L387 561 L388 561 L388 560 L389 560 L389 559 L390 559 L390 558 L391 557 L391 556 L391 555 L392 555 L392 554 L392 553 L392 552 L393 550 L393 549 L393 548 L393 547 L393 545 L393 544 L393 543 L393 541 L393 540 L393 538 L393 537 L393 535 L393 533 L393 531 L393 530 L393 528 L392 526 L392 524 L392 522 L392 520 L391 518 L391 516 L391 514 L390 512 L390 510 L389 507 L389 505 L388 503 L388 500 L387 498 L386 496 L386 493 L385 491 L384 488 L383 486 L383 483 L382 480 L381 478 L380 475 L379 472 L378 470 L377 467 L376 464 L375 461 L374 458 L373 456 L372 453 L371 450 L370 447 L368 444 L367 441 L366 438 L365 435 L363 432 L362 429 L360 426 L359 423 L358 420 L356 416 L355 413 L353 410 L351 407 L350 404 L348 401 L347 397 L345 394 L343 391 L341 388 L340 385 L338 381 L336 378 L334 375 L332 372 L330 368 L329 365 L327 362 L325 359 L323 355 L321 352 L319 349 L317 346 L314 342 L312 339 L310 336 L308 333 L306 329 L304 326 L302 323 L299 320 L297 317 L295 313 L293 310 L290 307 L288 304 L286 301 L283 298 L281 295 L279 291 L276 288 L274 285 L271 282 L269 279 L267 276 L264 273 L262 270 L259 267 L257 264 L254 261 L252 258 L249 256 L247 253 L244 250 L242 247 L239 244 L237 242 L234 239 L232 236 L229 233 L227 231 L224 228 L222 226 L219 223 L217 220 L214 218 L212 216 L209 213 L207 211 L204 208 L202 206 L199 204 L197 201 L194 199 L192 197 L189 195 L187 193 L184 190 L182 188 L179 186 L177 184 L175 182 L172 180 L170 179 L168 177 L165 175 L163 173 L161 171 L158 170 L156 168 L154 166 L152 165 L149 163 L147 162 L145 160 L143 159 L141 157 L139 156 L136 155 L134 154 L132 152 L130 151 L128 150 L126 149 L125 148 L123 147 L121 146 L119 145 L117 144 L115 143 L114 142 L112 141 L110 141 L109 140 L107 139 L105 139 L104 138 L102 138 L101 137 L99 137 L98 136 L97 136 L95 136 L94 135 L93 135 L92 135 L90 135 L89 134 L88 134 L87 134 L86 134 L85 134 L84 134 L83 134 L83 135 L82 135 L81 135 L80 135 L80 135 L79 136 L79 136 L78 136 L78 137 L77 137 L77 138 L76 138 L76 139 L76 139 L76 140 L75 141 L75 141 L75 142 L75 143 L75 144 L75 144 L76 145 L76 146 L76 147 L76 148 L77 149 L77 150 L77 151 L78 152 L78 153 L79 154 L80 155 L80 156 L81 157 L82 159 L83 160 L84 161 L85 162 L85 163 L87 165 L88 166 L89 167 L90 169 L91 170 L92 172 L94 173 L95 174 L96 176 L98 177 L99 179 L101 180 L103 182 L104 183 L106 185 L108 186 L110 188 L111 189 L113 191 L115 193 L117 194 L119 196 L121 197 L123 199 L126 201 L128 202 L130 204 L132 205 L135 207 L137 209 L139 210 L142 212 L144 214 L147 215 L149 217 L152 219 L155 220 L157 222 L160 224 L163 225 L166 227 L168 229 L171 230 L174 232 L177 234 L180 235 L183 237 L186 239 L189 240 L192 242 L195 244 L199 245 L202 247 L205 249 L208 250 L212 252 L215 253 L218 255 L222 256 L225 258 L228 260 L232 261 L235 263 L239 264 L242 266 L246 267 L249 269 L253 270 L256 271 L260 273 L263 274 L267 276 L271 277 L274 278 L278 280 L282 281 L285 282 L289 284 L293 285 L296 286 L300 287 L304 289 L307 290 L311 291 L315 292 L319 293 L322 294 L326 295 L330 297 L334 298 L337 299 L341 300 L345 301 L348 302 L352 303 L356 304 L360 304 L363 305 L367 306 L371 307 L374 308 L378 309 L382 309 L385 310 L389 311 L393 312 L396 312 L400 313 L404 314 L407 314 L411 315 L414 315 L418 316 L421 316 L425 317 L428 317 L431 318 L435 318 L438 319 L442 319 L445 319 L448 320 L452 320 L455 320 L458 321 L461 321 L464 321 L467 321 L471 321 L474 322 L477 322 L480 322 L483 322 L486 322 L488 322 L491 322 L494 322 L497 322 L500 322 L502 322 L505 322 L508 322 L510 322 L513 322 L515 322 L518 321 L520 321 L522 321 L525 321 L527 321 L529 320 L531 320 L534 320 L536 319 L538 319 L540 319 L542 318 L543 318 L545 318 L547 317 L549 317 L551 317 L552 316 L554 316 L555 315 L557 315 L558 314 L560 314 L561 313 L562 313 L563 312 L565 312 L566 311 L567 311 L568 310 L569 310 L570 309 L570 308 L571 308 L572 307 L573 307 L573 306 L574 305 L574 305 L575 304 L575 304 L575 303 L576 302 L576 302 L576 301 L576 301 L576 300" />
<path d="M576 300 L576 299 L576 299 L576 298 L576 298 L576 297 L575 296 L575 296 L575 295 L575 295 L574 294 L574 293 L574 293 L573 292 L573 292 L572 291 L572 290 L571 290 L571 289 L570 289 L569 288 L569 288 L568 287 L567 287 L566 286 L565 286 L565 285 L564 285 L563 284 L562 284 L561 283 L560 283 L559 283 L558 282 L557 282 L556 282 L555 281 L553 281 L552 281 L551 280 L550 280 L548 280 L547 279 L546 279 L544 279 L543 279 L542 279 L540 279 L539 278 L537 278 L536 278 L534 278 L532 278 L531 278 L529 278 L528 278 L526 278 L524 278 L523 278 L521 278 L519 278 L517 278 L516 279 L514 279 L512 279 L510 279 L508 279 L506 280 L504 280 L503 280 L501 281 L499 281 L497 281 L495 282 L493 282 L491 283 L489 283 L487 284 L485 284 L483 285 L481 285 L479 286 L476 287 L474 287 L472 288 L470 289 L468 289 L466 290 L464 291 L462 292 L459 293 L457 293 L455 294 L453 295 L451 296 L449 297 L446 298 L444 299 L442 300 L440 301 L438 302 L436 303 L433 305 L431 306 L429 307 L427 308 L425 309 L422 311 L420 312 L418 313 L416 314 L414 316 L412 317 L409 319 L407 320 L405 321 L403 323 L401 324 L399 326 L397 327 L395 329 L392 331 L390 332 L388 334 L386 335 L384 337 L382 339 L380 340 L378 342 L376 344 L374 346 L372 347 L370 349 L368 351 L366 353 L364 355 L362 357 L360 358 L358 360 L357 362 L355 364 L353 366 L351 368 L349 370 L347 372 L346 374 L344 376 L342 378 L340 380 L339 382 L337 384 L335 386 L334 388 L332 390 L331 392 L329 395 L327 397 L326 399 L324 401 L323 403 L321 405 L320 407 L319 409 L317 412 L316 414 L314 416 L313 418 L312 420 L311 422 L309 425 L308 427 L307 429 L306 431 L305 433 L303 436 L302 438 L301 440 L300 442 L299 444 L298 446 L297 449 L296 451 L295 453 L294 455 L293 457 L293 459 L292 462 L291 464 L290 466 L289 468 L289 470 L288 472 L287 474 L287 476 L286 479 L285 481 L285 483 L284 485 L284 487 L283 489 L283 491 L282 493 L282 495 L281 497 L281 499 L281 501 L280 503 L280 504 L280 506 L279 508 L279 510 L279 512 L279 514 L279 516 L278 517 L278 519 L278 521 L278 523 L278 524 L278 526 L278 528 L278 529 L278 531 L278 532 L278 534 L278 536 L278 537 L278 539 L279 540 L279 542 L279 543 L279 544 L279 546 L279 547 L280 548 L280 550 L280 551 L281 552 L281 553 L281 555 L282 556 L282 557 L282 558 L283 559 L283 560 L283 561 L284 562 L284 563 L285 564 L285 565 L286 565 L286 566 L287 567 L287 568 L288 569 L288 569 L289 570 L289 571 L290 571 L290 572 L291 572 L292 573 L292 573 L293 574 L293 574 L294 574 L295 575 L295 575 L296 575 L296 575 L297 576 L298 576 L298 576 L299 576 L299 576 L300 576 L301 576 L301 576 L302 576 L302 576 L303 576 L304 575 L304 575 L305 575 L305 575 L306 574 L307 574 L307 574 L308 573 L308 573 L309 572 L310 572 L310 571 L311 571 L311 570 L312 569 L312 569 L313 568 L313 567 L314 566 L314 565 L315 565 L315 564 L316 563 L316 562 L317 561 L317 560 L317 559 L318 558 L318 557 L318 556 L319 555 L319 553 L319 552 L320 551 L320 550 L320 548 L321 547 L321 546 L321 544 L321 543 L321 542 L321 540 L322 539 L322 537 L322 536 L322 534 L322 532 L322 531 L322 529 L322 528 L322 526 L322 524 L322 523 L322 521 L322 519 L322 517 L321 516 L321 514 L321 512 L321 510 L321 508 L320 506 L320 504 L320 503 L319 501 L319 499 L319 497 L318 495 L318 493 L317 491 L317 489 L316 487 L316 485 L315 483 L315 481 L314 479 L313 476 L313 474 L312 472 L311 470 L311 468 L310 466 L309 464 L308 462 L307 459 L307 457 L306 455 L305 453 L304 451 L303 449 L302 446 L301 444 L300 442 L299 440 L298 438 L297 436 L295 433 L294 431 L293 429 L292 427 L291 425 L289 422 L288 420 L287 418 L286 416 L284 414 L283 412 L281 409 L280 407 L279 405 L277 403 L276 401 L274 399 L273 397 L271 395 L269 392 L268 390 L266 388 L265 386 L263 384 L261 382 L260 380 L258 378 L256 376 L254 374 L253 372 L251 370 L249 368 L247 366 L245 364 L243 362 L242 360 L240 358 L238 357 L236 355 L234 353 L232 351 L230 349 L228 347 L226 346 L224 344 L222 342 L220 340 L218 339 L216 337 L214 335 L212 334 L210 332 L208 331 L205 329 L203 327 L201 326 L199 324 L197 323 L195 321 L193 320 L191 319 L188 317 L186 316 L184 314 L182 313 L180 312 L178 311 L175 309 L173 308 L171 307 L169 306 L167 305 L164 303 L162 302 L160 301 L158 300 L156 299 L154 298 L151 297 L149 296 L147 295 L145 294 L143 293 L141 293 L138 292 L136 291 L134 290 L132 289 L130 289 L128 288 L126 287 L124 287 L121 286 L119 285 L117 285 L115 284 L113 284 L111 283 L109 283 L107 282 L105 282 L103 281 L101 281 L99 281 L97 280 L96 280 L94 280 L92 279 L90 279 L88 279 L86 279 L84 279 L83 278 L81 278 L79 278 L77 278 L76 278 L74 278 L72 278 L71 278 L69 278 L68 278 L66 278 L64 278 L63 278 L61 278 L60 279 L58 279 L57 279 L56 279 L54 279 L53 279 L52 280 L50 280 L49 280 L48 281 L47 281 L45 281 L44 282 L43 282 L42 282 L41 283 L40 283 L39 283 L38 284 L37 284 L36 285 L35 285 L35 286 L34 286 L33 287 L32 287 L31 288 L31 288 L30 289 L29 289 L29 290 L28 290 L28 291 L27 292 L27 292 L26 293 L26 293 L26 294 L25 295 L25 295 L25 296 L25 296 L24 297 L24 298 L24 298 L24 299 L24 299 L24 300 L24 301 L24 301 L24 302 L24 302 L24 303 L25 304 L25 304 L25 305 L25 305 L26 306 L26 307 L26 307 L27 308 L27 308 L28 309 L28 310 L29 310 L29 311 L30 311 L31 312 L31 312 L32 313 L33 313 L34 314 L35 314 L35 315 L36 315 L37 316 L38 316 L39 317 L40 317 L41 317 L42 318 L43 318 L44 318 L45 319 L47 319 L48 319 L49 320 L50 320 L52 320 L53 321 L54 321 L56 321 L57 321 L58 321 L60 321 L61 322 L63 322 L64 322 L66 322 L68 322 L69 322 L71 322 L72 322 L74 322 L76 322 L77 322 L79 322 L81 322 L83 322 L84 321 L86 321 L88 321 L90 321 L92 321 L94 320 L96 320 L97 320 L99 319 L101 319 L103 319 L105 318 L107 318 L109 317 L111 317 L113 316 L115 316 L117 315 L119 315 L121 314 L124 313 L126 313 L128 312 L130 311 L132 311 L134 310 L136 309 L138 308 L141 307 L143 307 L145 306 L147 305 L149 304 L151 303 L154 302 L156 301 L158 300 L160 299 L162 298 L164 297 L167 295 L169 294 L171 293 L173 292 L175 291 L178 289 L180 288 L182 287 L184 286 L186 284 L188 283 L191 281 L193 280 L195 279 L197 277 L199 276 L201 274 L203 273 L205 271 L208 269 L210 268 L212 266 L214 265 L216 263 L218 261 L220 260 L222 258 L224 256 L226 254 L228 253 L230 251 L232 249 L234 247 L236 245 L238 243 L240 242 L242 240 L243 238 L245 236 L247 234 L249 232 L251 230 L253 228 L254 226 L256 224 L258 222 L260 220 L261 218 L263 216 L265 214 L266 212 L268 210 L269 208 L271 205 L273 203 L274 201 L276 199 L277 197 L279 195 L280 193 L281 191 L283 188 L284 186 L286 184 L287 182 L288 180 L289 178 L291 175 L292 173 L293 171 L294 169 L295 167 L297 164 L298 162 L299 160 L300 158 L301 156 L302 154 L303 151 L304 149 L305 147 L306 145 L307 143 L307 141 L308 138 L309 136 L310 134 L311 132 L311 130 L312 128 L313 126 L313 124 L314 121 L315 119 L315 117 L316 115 L316 113 L317 111 L317 109 L318 107 L318 105 L319 103 L319 101 L319 99 L320 97 L320 96 L320 94 L321 92 L321 90 L321 88 L321 86 L321 84 L322 83 L322 81 L322 79 L322 77 L322 76 L322 74 L322 72 L322 71 L322 69 L322 68 L322 66 L322 64 L322 63 L322 61 L321 60 L321 58 L321 57 L321 56 L321 54 L321 53 L320 52 L320 50 L320 49 L319 48 L319 47 L319 45 L318 44 L318 43 L318 42 L317 41 L317 40 L317 39 L316 38 L316 37 L315 36 L315 35 L314 35 L314 34 L313 33 L313 32 L312 31 L312 31 L311 30 L311 29 L310 29 L310 28 L309 28 L308 27 L308 27 L307 26 L307 26 L306 26 L305 25 L305 25 L304 25 L304 25 L303 24 L302 24 L302 24 L301 24 L301 24 L300 24 L299 24 L299 24 L298 24 L298 24 L297 24 L296 25 L296 25 L295 25 L295 25 L294 26 L293 26 L293 26 L292 27 L292 27 L291 28 L290 28 L290 29 L289 29 L289 30 L288 31 L288 31 L287 32 L287 33 L286 34 L286 35 L285 35 L285 36 L284 37 L284 38 L283 39 L283 40 L283 41 L282 42 L282 43 L282 44 L281 45 L281 47 L281 48 L280 49 L280 50 L280 52 L279 53 L279 54 L279 56 L279 57 L279 58 L279 60 L278 61 L278 63 L278 64 L278 66 L278 68 L278 69 L278 71 L278 72 L278 74 L278 76 L278 77 L278 79 L278 81 L278 83 L279 84 L279 86 L279 88 L279 90 L279 92 L280 94 L280 96 L280 97 L281 99 L281 101 L281 103 L282 105 L282 107 L283 109 L283 111 L284 113 L284 115 L285 117 L285 119 L286 121 L287 124 L287 126 L288 128 L289 130 L289 132 L290 134 L291 136 L292 138 L293 141 L293 143 L294 145 L295 147 L296 149 L297 151 L298 154 L299 156 L300 158 L301 160 L302 162 L303 164 L305 167 L306 169 L307 171 L308 173 L309 175 L311 178 L312 180 L313 182 L314 184 L316 186 L317 188 L319 191 L320 193 L321 195 L323 197 L324 199 L326 201 L327 203 L329 205 L331 208 L332 210 L334 212 L335 214 L337 216 L339 218 L340 220 L342 222 L344 224 L346 226 L347 228 L349 230 L351 232 L353 234 L355 236 L357 238 L358 240 L360 242 L362 243 L364 245 L366 247 L368 249 L370 251 L372 253 L374 254 L376 256 L378 258 L380 260 L382 261 L384 263 L386 265 L388 266 L390 268 L392 269 L395 271 L397 273 L399 274 L401 276 L403 277 L405 279 L407 280 L409 281 L412 283 L414 284 L416 286 L418 287 L420 288 L422 289 L425 291 L427 292 L429 293 L431 294 L433 295 L436 297 L438 298 L440 299 L442 300 L444 301 L446 302 L449 303 L451 304 L453 305 L455 306 L457 307 L459 307 L462 308 L464 309 L466 310 L468 311 L470 311 L472 312 L474 313 L476 313 L479 314 L481 315 L483 315 L485 316 L487 316 L489 317 L491 317 L493 318 L495 318 L497 319 L499 319 L501 319 L503 320 L504 320 L506 320 L508 321 L510 321 L512 321 L514 321 L516 321 L517 322 L519 322 L521 322 L523 322 L524 322 L526 322 L528 322 L529 322 L531 322 L532 322 L534 322 L536 322 L537 322 L539 322 L540 321 L542 321 L543 321 L544 321 L546 321 L547 321 L548 320 L550 320 L551 320 L552 319 L553 319 L555 319 L556 318 L557 318 L558 318 L559 317 L560 317 L561 317 L562 316 L563 316 L564 315 L565 315 L565 314 L566 314 L567 313 L568 313 L569 312 L569 312 L570 311 L571 311 L571 310 L572 310 L572 309 L573 308 L573 308 L574 307 L574 307 L574 306 L575 305 L575 305 L575 304 L575 304 L576 303 L576 302 L576 302 L576 301 L576 301 L576 300" />
<path d="M486 300 L486 300 L486 301 L486 301 L486 302 L486 302 L485 302 L485 303 L485 303 L485 304 L484 304 L484 305 L484 305 L483 305 L483 306 L482 306 L482 307 L481 307 L481 308 L480 308 L479 308 L479 309 L478 309 L477 310 L476 310 L475 311 L475 311 L474 311 L473 312 L472 312 L471 313 L470 313 L469 314 L468 314 L467 315 L466 315 L464 316 L463 316 L462 317 L461 317 L460 318 L458 318 L457 319 L456 319 L454 320 L453 320 L451 321 L450 321 L448 322 L447 322 L445 323 L444 323 L442 324 L441 324 L439 325 L437 326 L436 326 L434 327 L432 327 L430 328 L429 328 L427 329 L425 330 L423 330 L421 331 L419 331 L417 332 L415 333 L414 333 L412 334 L410 334 L408 335 L406 336 L404 336 L401 337 L399 338 L397 338 L395 339 L393 340 L391 340 L389 341 L387 342 L385 342 L382 343 L380 344 L378 344 L376 345 L374 346 L371 347 L369 347 L367 348 L365 349 L362 349 L360 350 L358 351 L355 352 L353 352 L351 353 L348 354 L346 354 L344 355 L341 356 L339 357 L337 357 L334 358 L332 359 L330 360 L327 360 L325 361 L323 362 L320 363 L318 364 L316 364 L313 365 L311 366 L309 367 L306 367 L304 368 L302 369 L299 370 L297 370 L295 371 L292 372 L290 373 L288 373 L285 374 L283 375 L281 376 L279 377 L276 377 L274 378 L272 379 L270 380 L267 380 L265 381 L263 382 L261 382 L259 383 L256 384 L254 385 L252 385 L250 386 L248 387 L246 388 L244 388 L242 389 L240 390 L238 390 L236 391 L234 392 L232 392 L230 393 L228 394 L226 394 L224 395 L222 395 L220 396 L218 397 L216 397 L215 398 L213 399 L211 399 L209 400 L207 400 L206 401 L204 401 L202 402 L201 402 L199 403 L197 403 L196 404 L194 404 L193 405 L191 405 L190 406 L188 406 L187 406 L185 407 L184 407 L183 408 L181 408 L180 408 L179 409 L177 409 L176 409 L175 410 L174 410 L173 410 L171 410 L170 411 L169 411 L168 411 L167 411 L166 411 L165 412 L164 412 L163 412 L162 412 L162 412 L161 412 L160 412 L159 412 L158 412 L158 412 L157 412 L156 412 L156 412 L155 412 L154 412 L154 412 L153 412 L153 412 L152 411 L152 411 L151 411 L151 411 L151 410 L150 410 L150 410 L150 410 L150 409 L149 409 L149 409 L149 408 L149 408 L149 407 L149 407 L149 407 L148 406 L148 406 L148 405 L149 404 L149 404 L149 403 L149 403 L149 402 L149 401 L149 401 L150 400 L150 399 L150 399 L150 398 L151 397 L151 396 L151 395 L152 395 L152 394 L153 393 L153 392 L154 391 L154 390 L155 389 L155 388 L156 387 L156 386 L157 385 L158 384 L158 383 L159 382 L160 381 L161 380 L161 378 L162 377 L163 376 L164 375 L165 373 L165 372 L166 371 L167 370 L168 368 L169 367 L170 366 L171 364 L172 363 L173 361 L174 360 L175 359 L176 357 L177 356 L178 354 L179 353 L180 351 L182 350 L183 348 L184 346 L185 345 L186 343 L187 342 L189 340 L190 338 L191 337 L192 335 L194 333 L195 331 L196 330 L197 328 L199 326 L200 324 L201 323 L203 321 L204 319 L205 317 L207 315 L208 314 L209 312 L211 310 L212 308 L214 306 L215 304 L216 302 L218 300 L219 299 L221 297 L222 295 L223 293 L225 291 L226 289 L228 287 L229 285 L231 283 L232 281 L234 279 L235 277 L236 275 L238 273 L239 271 L241 269 L242 267 L244 265 L245 263 L247 261 L248 259 L250 257 L251 255 L252 253 L254 251 L255 249 L257 247 L258 245 L260 243 L261 241 L262 239 L264 237 L265 235 L267 233 L268 231 L270 229 L271 227 L272 226 L274 224 L275 222 L276 220 L278 218 L279 216 L281 214 L282 212 L283 210 L285 208 L286 207 L287 205 L288 203 L290 201 L291 199 L292 197 L294 196 L295 194 L296 192 L297 190 L299 189 L300 187 L301 185 L302 183 L304 182 L305 180 L306 178 L307 177 L308 175 L309 174 L310 172 L312 171 L313 169 L314 167 L315 166 L316 165 L317 163 L318 162 L319 160 L320 159 L321 157 L322 156 L323 155 L324 153 L325 152 L326 151 L327 150 L328 149 L329 147 L330 146 L331 145 L332 144 L333 143 L333 142 L334 141 L335 140 L336 139 L337 138 L338 137 L338 136 L339 135 L340 134 L341 133 L341 133 L342 132 L343 131 L343 131 L344 130 L345 129 L346 129 L346 128 L347 127 L347 127 L348 126 L349 126 L349 126 L350 125 L350 125 L351 124 L351 124 L352 124 L353 124 L353 123 L354 123 L354 123 L354 123 L355 123 L355 123 L356 123 L356 123 L357 123 L357 123 L357 123 L358 123 L358 123 L359 124 L359 124 L359 124 L360 124 L360 125 L360 125 L361 126 L361 126 L361 126 L361 127 L362 127 L362 128 L362 129 L362 129 L363 130 L363 131 L363 131 L363 132 L364 133 L364 134 L364 135 L364 135 L364 136 L364 137 L365 138 L365 139 L365 140 L365 141 L365 143 L365 144 L365 145 L366 146 L366 147 L366 148 L366 150 L366 151 L366 152 L366 154 L366 155 L366 157 L366 158 L366 159 L366 161 L366 162 L366 164 L366 166 L367 167 L367 169 L367 171 L367 172 L367 174 L367 176 L367 177 L367 179 L367 181 L367 183 L367 185 L367 187 L367 188 L367 190 L367 192 L367 194 L367 196 L367 198 L367 200 L367 202 L367 204 L367 206 L367 209 L367 211 L367 213 L367 215 L367 217 L367 219 L366 221 L366 224 L366 226 L366 228 L366 230 L366 233 L366 235 L366 237 L366 240 L366 242 L366 244 L366 247 L366 249 L366 251 L366 254 L366 256 L366 258 L366 261 L366 263 L366 266 L366 268 L366 271 L366 273 L366 275 L366 278 L366 280 L366 283 L366 285 L366 288 L366 290 L366 293 L366 295 L366 298 L366 300 L366 302 L366 305 L366 307 L366 310 L366 312 L366 315 L366 317 L366 320 L366 322 L366 325 L366 327 L366 329 L366 332 L366 334 L366 337 L366 339 L366 342 L366 344 L366 346 L366 349 L366 351 L366 353 L366 356 L366 358 L366 360 L366 363 L366 365 L366 367 L366 370 L366 372 L366 374 L366 376 L366 379 L367 381 L367 383 L367 385 L367 387 L367 389 L367 391 L367 394 L367 396 L367 398 L367 400 L367 402 L367 404 L367 406 L367 408 L367 410 L367 412 L367 413 L367 415 L367 417 L367 419 L367 421 L367 423 L367 424 L367 426 L367 428 L367 429 L367 431 L367 433 L366 434 L366 436 L366 438 L366 439 L366 441 L366 442 L366 443 L366 445 L366 446 L366 448 L366 449 L366 450 L366 452 L366 453 L366 454 L365 455 L365 456 L365 457 L365 459 L365 460 L365 461 L365 462 L364 463 L364 464 L364 465 L364 465 L364 466 L364 467 L363 468 L363 469 L363 469 L363 470 L362 471 L362 471 L362 472 L362 473 L361 473 L361 474 L361 474 L361 474 L360 475 L360 475 L360 476 L359 476 L359 476 L359 476 L358 477 L358 477 L357 477 L357 477 L357 477 L356 477 L356 477 L355 477 L355 477 L354 477 L354 477 L354 477 L353 477 L353 476 L352 476 L351 476 L351 476 L350 475 L350 475 L349 474 L349 474 L348 474 L347 473 L347 473 L346 472 L346 471 L345 471 L344 470 L343 469 L343 469 L342 468 L341 467 L341 467 L340 466 L339 465 L338 464 L338 463 L337 462 L336 461 L335 460 L334 459 L333 458 L333 457 L332 456 L331 455 L330 454 L329 453 L328 451 L327 450 L326 449 L325 448 L324 447 L323 445 L322 444 L321 443 L320 441 L319 440 L318 438 L317 437 L316 435 L315 434 L314 433 L313 431 L312 429 L310 428 L309 426 L308 425 L307 423 L306 422 L305 420 L304 418 L302 417 L301 415 L300 413 L299 411 L297 410 L296 408 L295 406 L294 404 L292 403 L291 401 L290 399 L288 397 L287 395 L286 393 L285 392 L283 390 L282 388 L281 386 L279 384 L278 382 L276 380 L275 378 L274 376 L272 374 L271 373 L270 371 L268 369 L267 367 L265 365 L264 363 L262 361 L261 359 L260 357 L258 355 L257 353 L255 351 L254 349 L252 347 L251 345 L250 343 L248 341 L247 339 L245 337 L244 335 L242 333 L241 331 L239 329 L238 327 L236 325 L235 323 L234 321 L232 319 L231 317 L229 315 L228 313 L226 311 L225 309 L223 307 L222 305 L221 303 L219 301 L218 300 L216 298 L215 296 L214 294 L212 292 L211 290 L209 288 L208 286 L207 285 L205 283 L204 281 L203 279 L201 277 L200 276 L199 274 L197 272 L196 270 L195 269 L194 267 L192 265 L191 263 L190 262 L189 260 L187 258 L186 257 L185 255 L184 254 L183 252 L182 250 L180 249 L179 247 L178 246 L177 244 L176 243 L175 241 L174 240 L173 239 L172 237 L171 236 L170 234 L169 233 L168 232 L167 230 L166 229 L165 228 L165 227 L164 225 L163 224 L162 223 L161 222 L161 220 L160 219 L159 218 L158 217 L158 216 L157 215 L156 214 L156 213 L155 212 L155 211 L154 210 L154 209 L153 208 L153 207 L152 206 L152 205 L151 205 L151 204 L151 203 L150 202 L150 201 L150 201 L150 200 L149 199 L149 199 L149 198 L149 197 L149 197 L149 196 L149 196 L148 195 L148 194 L148 194 L149 193 L149 193 L149 193 L149 192 L149 192 L149 191 L149 191 L150 191 L150 190 L150 190 L150 190 L151 190 L151 189 L151 189 L152 189 L152 189 L153 188 L153 188 L154 188 L154 188 L155 188 L156 188 L156 188 L157 188 L158 188 L158 188 L159 188 L160 188 L161 188 L162 188 L162 188 L163 188 L164 188 L165 188 L166 189 L167 189 L168 189 L169 189 L170 189 L171 190 L173 190 L174 190 L175 190 L176 191 L177 191 L179 191 L180 192 L181 192 L183 192 L184 193 L185 193 L187 194 L188 194 L190 194 L191 195 L193 195 L194 196 L196 196 L197 197 L199 197 L201 198 L202 198 L204 199 L206 199 L207 200 L209 200 L211 201 L213 201 L215 202 L216 203 L218 203 L220 204 L222 205 L224 205 L226 206 L228 206 L230 207 L232 208 L234 208 L236 209 L238 210 L240 210 L242 211 L244 212 L246 212 L248 213 L250 214 L252 215 L254 215 L256 216 L259 217 L261 218 L263 218 L265 219 L267 220 L270 220 L272 221 L274 222 L276 223 L279 223 L281 224 L283 225 L285 226 L288 227 L290 227 L292 228 L295 229 L297 230 L299 230 L302 231 L304 232 L306 233 L309 233 L311 234 L313 235 L316 236 L318 236 L320 237 L323 238 L325 239 L327 240 L330 240 L332 241 L334 242 L337 243 L339 243 L341 244 L344 245 L346 246 L348 246 L351 247 L353 248 L355 248 L358 249 L360 250 L362 251 L365 251 L367 252 L369 253 L371 253 L374 254 L376 255 L378 256 L380 256 L382 257 L385 258 L387 258 L389 259 L391 260 L393 260 L395 261 L397 262 L399 262 L401 263 L404 264 L406 264 L408 265 L410 266 L412 266 L414 267 L415 267 L417 268 L419 269 L421 269 L423 270 L425 270 L427 271 L429 272 L430 272 L432 273 L434 273 L436 274 L437 274 L439 275 L441 276 L442 276 L444 277 L445 277 L447 278 L448 278 L450 279 L451 279 L453 280 L454 280 L456 281 L457 281 L458 282 L460 282 L461 283 L462 283 L463 284 L464 284 L466 285 L467 285 L468 286 L469 286 L470 287 L471 287 L472 288 L473 288 L474 289 L475 289 L475 289 L476 290 L477 290 L478 291 L479 291 L479 292 L480 292 L481 292 L481 293 L482 293 L482 294 L483 294 L483 295 L484 295 L484 295 L484 296 L485 296 L485 297 L485 297 L485 298 L486 298 L486 298 L486 299 L486 299 L486 300 L486 300" />
<path d="M519 300 L519 299 L519 299 L519 298 L519 297 L519 297 L518 296 L518 295 L518 295 L518 294 L518 293 L517 293 L517 292 L517 291 L516 291 L516 290 L515 290 L515 289 L514 288 L514 288 L513 287 L513 287 L512 286 L511 285 L511 285 L510 284 L509 284 L509 283 L508 283 L507 282 L506 282 L505 281 L504 281 L504 280 L503 280 L502 279 L501 279 L500 279 L499 278 L498 278 L497 277 L495 277 L494 277 L493 276 L492 276 L491 276 L490 275 L488 275 L487 275 L486 275 L485 275 L483 274 L482 274 L481 274 L479 274 L478 274 L476 274 L475 274 L473 274 L472 273 L471 273 L469 273 L468 273 L466 273 L464 274 L463 274 L461 274 L460 274 L458 274 L456 274 L455 274 L453 274 L452 275 L450 275 L448 275 L446 275 L445 276 L443 276 L441 276 L440 277 L438 277 L436 278 L434 278 L433 279 L431 279 L429 280 L427 280 L425 281 L424 281 L422 282 L420 282 L418 283 L416 284 L414 284 L413 285 L411 286 L409 287 L407 287 L405 288 L403 289 L402 290 L400 291 L398 292 L396 293 L394 293 L392 294 L391 295 L389 296 L387 297 L385 298 L383 299 L381 301 L380 302 L378 303 L376 304 L374 305 L372 306 L371 307 L369 309 L367 310 L365 311 L364 312 L362 314 L360 315 L358 316 L357 318 L355 319 L353 320 L352 322 L350 323 L348 325 L347 326 L345 328 L343 329 L342 331 L340 332 L338 334 L337 335 L335 337 L334 338 L332 340 L331 342 L329 343 L328 345 L326 347 L325 348 L323 350 L322 352 L320 353 L319 355 L318 357 L316 358 L315 360 L314 362 L312 364 L311 365 L310 367 L309 369 L307 371 L306 372 L305 374 L304 376 L303 378 L302 380 L301 381 L299 383 L298 385 L297 387 L296 389 L295 391 L294 392 L293 394 L293 396 L292 398 L291 400 L290 402 L289 403 L288 405 L287 407 L287 409 L286 411 L285 413 L284 414 L284 416 L283 418 L282 420 L282 422 L281 424 L281 425 L280 427 L280 429 L279 431 L279 433 L278 434 L278 436 L277 438 L277 440 L276 441 L276 443 L276 445 L275 446 L275 448 L275 450 L275 452 L274 453 L274 455 L274 456 L274 458 L274 460 L274 461 L274 463 L274 464 L273 466 L273 468 L273 469 L273 471 L273 472 L274 473 L274 475 L274 476 L274 478 L274 479 L274 481 L274 482 L274 483 L275 485 L275 486 L275 487 L275 488 L275 490 L276 491 L276 492 L276 493 L277 494 L277 495 L277 497 L278 498 L278 499 L279 500 L279 501 L279 502 L280 503 L280 504 L281 504 L281 505 L282 506 L282 507 L283 508 L283 509 L284 509 L284 510 L285 511 L285 511 L286 512 L287 513 L287 513 L288 514 L288 514 L289 515 L290 515 L290 516 L291 516 L291 517 L292 517 L293 517 L293 518 L294 518 L295 518 L295 518 L296 518 L297 519 L297 519 L298 519 L299 519 L299 519 L300 519 L301 519 L301 519 L302 519 L303 519 L303 519 L304 518 L305 518 L305 518 L306 518 L307 518 L307 517 L308 517 L309 517 L309 516 L310 516 L310 515 L311 515 L312 514 L312 514 L313 513 L313 513 L314 512 L315 511 L315 511 L316 510 L316 509 L317 509 L317 508 L318 507 L318 506 L319 505 L319 504 L320 504 L320 503 L321 502 L321 501 L321 500 L322 499 L322 498 L323 497 L323 495 L323 494 L324 493 L324 492 L324 491 L325 490 L325 488 L325 487 L325 486 L325 485 L326 483 L326 482 L326 481 L326 479 L326 478 L326 476 L326 475 L326 473 L327 472 L327 471 L327 469 L327 468 L327 466 L326 464 L326 463 L326 461 L326 460 L326 458 L326 456 L326 455 L326 453 L325 452 L325 450 L325 448 L325 446 L324 445 L324 443 L324 441 L323 440 L323 438 L322 436 L322 434 L321 433 L321 431 L320 429 L320 427 L319 425 L319 424 L318 422 L318 420 L317 418 L316 416 L316 414 L315 413 L314 411 L313 409 L313 407 L312 405 L311 403 L310 402 L309 400 L308 398 L307 396 L307 394 L306 392 L305 391 L304 389 L303 387 L302 385 L301 383 L299 381 L298 380 L297 378 L296 376 L295 374 L294 372 L293 371 L291 369 L290 367 L289 365 L288 364 L286 362 L285 360 L284 358 L282 357 L281 355 L280 353 L278 352 L277 350 L275 348 L274 347 L272 345 L271 343 L269 342 L268 340 L266 338 L265 337 L263 335 L262 334 L260 332 L258 331 L257 329 L255 328 L253 326 L252 325 L250 323 L248 322 L247 320 L245 319 L243 318 L242 316 L240 315 L238 314 L236 312 L235 311 L233 310 L231 309 L229 307 L228 306 L226 305 L224 304 L222 303 L220 302 L219 301 L217 299 L215 298 L213 297 L211 296 L209 295 L208 294 L206 293 L204 293 L202 292 L200 291 L198 290 L197 289 L195 288 L193 287 L191 287 L189 286 L187 285 L186 284 L184 284 L182 283 L180 282 L178 282 L176 281 L175 281 L173 280 L171 280 L169 279 L167 279 L166 278 L164 278 L162 277 L160 277 L159 276 L157 276 L155 276 L154 275 L152 275 L150 275 L148 275 L147 274 L145 274 L144 274 L142 274 L140 274 L139 274 L137 274 L136 274 L134 273 L132 273 L131 273 L129 273 L128 273 L127 274 L125 274 L124 274 L122 274 L121 274 L119 274 L118 274 L117 274 L115 275 L114 275 L113 275 L112 275 L110 275 L109 276 L108 276 L107 276 L106 277 L105 277 L103 277 L102 278 L101 278 L100 279 L99 279 L98 279 L97 280 L96 280 L96 281 L95 281 L94 282 L93 282 L92 283 L91 283 L91 284 L90 284 L89 285 L89 285 L88 286 L87 287 L87 287 L86 288 L86 288 L85 289 L85 290 L84 290 L84 291 L83 291 L83 292 L83 293 L82 293 L82 294 L82 295 L82 295 L82 296 L81 297 L81 297 L81 298 L81 299 L81 299 L81 300 L81 301 L81 301 L81 302 L81 303 L81 303 L82 304 L82 305 L82 305 L82 306 L82 307 L83 307 L83 308 L83 309 L84 309 L84 310 L85 310 L85 311 L86 312 L86 312 L87 313 L87 313 L88 314 L89 315 L89 315 L90 316 L91 316 L91 317 L92 317 L93 318 L94 318 L95 319 L96 319 L96 320 L97 320 L98 321 L99 321 L100 321 L101 322 L102 322 L103 323 L105 323 L106 323 L107 324 L108 324 L109 324 L110 325 L112 325 L113 325 L114 325 L115 325 L117 326 L118 326 L119 326 L121 326 L122 326 L124 326 L125 326 L127 326 L128 327 L129 327 L131 327 L132 327 L134 327 L136 326 L137 326 L139 326 L140 326 L142 326 L144 326 L145 326 L147 326 L148 325 L150 325 L152 325 L154 325 L155 324 L157 324 L159 324 L160 323 L162 323 L164 322 L166 322 L167 321 L169 321 L171 320 L173 320 L175 319 L176 319 L178 318 L180 318 L182 317 L184 316 L186 316 L187 315 L189 314 L191 313 L193 313 L195 312 L197 311 L198 310 L200 309 L202 308 L204 307 L206 307 L208 306 L209 305 L211 304 L213 303 L215 302 L217 301 L219 299 L220 298 L222 297 L224 296 L226 295 L228 294 L229 293 L231 291 L233 290 L235 289 L236 288 L238 286 L240 285 L242 284 L243 282 L245 281 L247 280 L248 278 L250 277 L252 275 L253 274 L255 272 L257 271 L258 269 L260 268 L262 266 L263 265 L265 263 L266 262 L268 260 L269 258 L271 257 L272 255 L274 253 L275 252 L277 250 L278 248 L280 247 L281 245 L282 243 L284 242 L285 240 L286 238 L288 236 L289 235 L290 233 L291 231 L293 229 L294 228 L295 226 L296 224 L297 222 L298 220 L299 219 L301 217 L302 215 L303 213 L304 211 L305 209 L306 208 L307 206 L307 204 L308 202 L309 200 L310 198 L311 197 L312 195 L313 193 L313 191 L314 189 L315 187 L316 186 L316 184 L317 182 L318 180 L318 178 L319 176 L319 175 L320 173 L320 171 L321 169 L321 167 L322 166 L322 164 L323 162 L323 160 L324 159 L324 157 L324 155 L325 154 L325 152 L325 150 L325 148 L326 147 L326 145 L326 144 L326 142 L326 140 L326 139 L326 137 L326 136 L327 134 L327 132 L327 131 L327 129 L327 128 L326 127 L326 125 L326 124 L326 122 L326 121 L326 119 L326 118 L326 117 L325 115 L325 114 L325 113 L325 112 L325 110 L324 109 L324 108 L324 107 L323 106 L323 105 L323 103 L322 102 L322 101 L321 100 L321 99 L321 98 L320 97 L320 96 L319 96 L319 95 L318 94 L318 93 L317 92 L317 91 L316 91 L316 90 L315 89 L315 89 L314 88 L313 87 L313 87 L312 86 L312 86 L311 85 L310 85 L310 84 L309 84 L309 83 L308 83 L307 83 L307 82 L306 82 L305 82 L305 82 L304 82 L303 81 L303 81 L302 81 L301 81 L301 81 L300 81 L299 81 L299 81 L298 81 L297 81 L297 81 L296 82 L295 82 L295 82 L294 82 L293 82 L293 83 L292 83 L291 83 L291 84 L290 84 L290 85 L289 85 L288 86 L288 86 L287 87 L287 87 L286 88 L285 89 L285 89 L284 90 L284 91 L283 91 L283 92 L282 93 L282 94 L281 95 L281 96 L280 96 L280 97 L279 98 L279 99 L279 100 L278 101 L278 102 L277 103 L277 105 L277 106 L276 107 L276 108 L276 109 L275 110 L275 112 L275 113 L275 114 L275 115 L274 117 L274 118 L274 119 L274 121 L274 122 L274 124 L274 125 L274 127 L273 128 L273 129 L273 131 L273 132 L273 134 L274 136 L274 137 L274 139 L274 140 L274 142 L274 144 L274 145 L274 147 L275 148 L275 150 L275 152 L275 154 L276 155 L276 157 L276 159 L277 160 L277 162 L278 164 L278 166 L279 167 L279 169 L280 171 L280 173 L281 175 L281 176 L282 178 L282 180 L283 182 L284 184 L284 186 L285 187 L286 189 L287 191 L287 193 L288 195 L289 197 L290 198 L291 200 L292 202 L293 204 L293 206 L294 208 L295 209 L296 211 L297 213 L298 215 L299 217 L301 219 L302 220 L303 222 L304 224 L305 226 L306 228 L307 229 L309 231 L310 233 L311 235 L312 236 L314 238 L315 240 L316 242 L318 243 L319 245 L320 247 L322 248 L323 250 L325 252 L326 253 L328 255 L329 257 L331 258 L332 260 L334 262 L335 263 L337 265 L338 266 L340 268 L342 269 L343 271 L345 272 L347 274 L348 275 L350 277 L352 278 L353 280 L355 281 L357 282 L358 284 L360 285 L362 286 L364 288 L365 289 L367 290 L369 291 L371 293 L372 294 L374 295 L376 296 L378 297 L380 298 L381 299 L383 301 L385 302 L387 303 L389 304 L391 305 L392 306 L394 307 L396 307 L398 308 L400 309 L402 310 L403 311 L405 312 L407 313 L409 313 L411 314 L413 315 L414 316 L416 316 L418 317 L420 318 L422 318 L424 319 L425 319 L427 320 L429 320 L431 321 L433 321 L434 322 L436 322 L438 323 L440 323 L441 324 L443 324 L445 324 L446 325 L448 325 L450 325 L452 325 L453 326 L455 326 L456 326 L458 326 L460 326 L461 326 L463 326 L464 326 L466 327 L468 327 L469 327 L471 327 L472 327 L473 326 L475 326 L476 326 L478 326 L479 326 L481 326 L482 326 L483 326 L485 325 L486 325 L487 325 L488 325 L490 325 L491 324 L492 324 L493 324 L494 323 L495 323 L497 323 L498 322 L499 322 L500 321 L501 321 L502 321 L503 320 L504 320 L504 319 L505 319 L506 318 L507 318 L508 317 L509 317 L509 316 L510 316 L511 315 L511 315 L512 314 L513 313 L513 313 L514 312 L514 312 L515 311 L515 310 L516 310 L516 309 L517 309 L517 308 L517 307 L518 307 L518 306 L518 305 L518 305 L518 304 L519 303 L519 303 L519 302 L519 301 L519 301 L519 300" />
<path d="M390 300 L390 300 L390 301 L390 301 L390 301 L390 302 L390 302 L390 302 L390 303 L390 303 L390 303 L390 304 L389 304 L389 304 L389 305 L389 305 L389 305 L389 306 L389 306 L389 306 L388 307 L388 307 L388 307 L388 308 L388 308 L388 308 L387 309 L387 309 L387 309 L387 310 L387 310 L386 310 L386 311 L386 311 L386 311 L385 312 L385 312 L385 312 L384 312 L384 313 L384 313 L384 313 L383 314 L383 314 L383 314 L382 314 L382 315 L382 315 L381 315 L381 315 L380 316 L380 316 L380 316 L379 317 L379 317 L378 317 L378 317 L378 318 L377 318 L377 318 L376 318 L376 318 L375 319 L375 319 L375 319 L374 319 L374 320 L373 320 L373 320 L372 320 L372 320 L371 320 L371 321 L370 321 L370 321 L369 321 L369 321 L368 321 L368 322 L367 322 L366 322 L366 322 L365 322 L365 322 L364 322 L364 323 L363 323 L362 323 L362 323 L361 323 L361 323 L360 323 L359 323 L359 323 L358 323 L358 324 L357 324 L356 324 L356 324 L355 324 L354 324 L354 324 L353 324 L352 324 L352 324 L351 324 L350 324 L350 324 L349 324 L348 324 L348 324 L347 324 L346 324 L346 324 L345 324 L344 324 L344 324 L343 324 L342 324 L342 324 L341 324 L340 324 L339 324 L339 323 L338 323 L337 323 L337 323 L336 323 L335 323 L334 323 L334 323 L333 323 L332 323 L332 322 L331 322 L330 322 L329 322 L329 322 L328 322 L327 321 L326 321 L326 321 L325 321 L324 321 L324 321 L323 320 L322 320 L321 320 L321 320 L320 319 L319 319 L318 319 L318 319 L317 319 L316 318 L315 318 L315 318 L314 318 L313 317 L312 317 L312 317 L311 316 L310 316 L310 316 L309 316 L308 315 L307 315 L307 315 L306 314 L305 314 L304 314 L304 313 L303 313 L302 313 L302 312 L301 312 L300 311 L299 311 L299 311 L298 310 L297 310 L297 310 L296 309 L295 309 L295 308 L294 308 L293 308 L292 307 L292 307 L291 306 L290 306 L290 305 L289 305 L288 305 L288 304 L287 304 L286 303 L286 303 L285 302 L285 302 L284 301 L283 301 L283 300 L282 300 L281 299 L281 299 L280 299 L279 298 L279 298 L278 297 L278 297 L277 296 L276 296 L276 295 L275 294 L275 294 L274 293 L274 293 L273 292 L272 292 L272 291 L271 291 L271 290 L270 290 L270 289 L269 289 L269 288 L268 288 L268 287 L267 286 L267 286 L266 285 L266 285 L265 284 L265 284 L264 283 L264 283 L263 282 L263 281 L262 281 L262 280 L261 280 L261 279 L261 279 L260 278 L260 277 L259 277 L259 276 L259 276 L258 275 L258 274 L257 274 L257 273 L257 273 L256 272 L256 272 L256 271 L255 270 L255 270 L254 269 L254 269 L254 268 L254 268 L253 267 L253 266 L253 266 L252 265 L252 265 L252 264 L251 263 L251 263 L251 262 L251 262 L250 261 L250 261 L250 260 L250 259 L250 259 L249 258 L249 258 L249 257 L249 257 L249 256 L248 255 L248 255 L248 254 L248 254 L248 253 L248 253 L247 252 L247 252 L247 251 L247 251 L247 250 L247 249 L247 249 L247 248 L247 248 L246 247 L246 247 L246 246 L246 246 L246 245 L246 245 L246 244 L246 244 L246 243 L246 243 L246 242 L246 242 L246 241 L246 241 L246 240 L246 240 L246 239 L246 239 L246 239 L246 238 L246 238 L246 237 L246 237 L246 236 L246 236 L247 235 L247 235 L247 235 L247 234 L247 234 L247 233 L247 233 L247 233 L247 232 L247 232 L248 231 L248 231 L248 231 L248 230 L248 230 L248 230 L248 229 L249 229 L249 229 L249 228 L249 228 L249 228 L250 227 L250 227 L250 227 L250 226 L250 226 L251 226 L251 226 L251 225 L251 225 L252 225 L252 225 L252 224 L252 224 L253 224 L253 224 L253 223 L253 223 L254 223 L254 223 L254 223 L255 222 L255 222 L255 222 L255 222 L256 222 L256 222 L256 221 L257 221 L257 221 L257 221 L258 221 L258 221 L258 221 L259 221 L259 220 L259 220 L260 220 L260 220 L260 220 L261 220 L261 220 L261 220 L262 220 L262 220 L262 220 L263 220 L263 220 L264 220 L264 220 L264 220 L265 220 L265 220 L266 220 L266 220 L266 220 L267 220 L267 220 L267 220 L268 221 L268 221 L269 221 L269 221 L269 221 L270 221 L270 221 L271 221 L271 221 L272 222 L272 222 L272 222 L273 222 L273 222 L274 223 L274 223 L274 223 L275 223 L275 223 L276 224 L276 224 L276 224 L277 224 L277 225 L278 225 L278 225 L279 225 L279 226 L279 226 L280 226 L280 227 L281 227 L281 227 L281 228 L282 228 L282 228 L283 229 L283 229 L283 229 L284 230 L284 230 L285 230 L285 231 L286 231 L286 232 L286 232 L287 232 L287 233 L288 233 L288 234 L288 234 L289 235 L289 235 L289 236 L290 236 L290 237 L291 237 L291 238 L291 238 L292 239 L292 239 L292 240 L293 240 L293 241 L294 241 L294 242 L294 242 L295 243 L295 243 L295 244 L296 244 L296 245 L296 246 L297 246 L297 247 L297 247 L298 248 L298 249 L298 249 L299 250 L299 250 L299 251 L300 252 L300 252 L300 253 L300 254 L301 254 L301 255 L301 256 L302 256 L302 257 L302 258 L302 258 L303 259 L303 260 L303 260 L303 261 L304 262 L304 262 L304 263 L304 264 L305 265 L305 265 L305 266 L305 267 L305 267 L306 268 L306 269 L306 270 L306 270 L306 271 L307 272 L307 273 L307 273 L307 274 L307 275 L308 276 L308 276 L308 277 L308 278 L308 279 L308 279 L308 280 L309 281 L309 282 L309 283 L309 283 L309 284 L309 285 L309 286 L309 286 L309 287 L309 288 L309 289 L310 290 L310 290 L310 291 L310 292 L310 293 L310 294 L310 294 L310 295 L310 296 L310 297 L310 298 L310 298 L310 299 L310 300 L310 301 L310 302 L310 302 L310 303 L310 304 L310 305 L310 306 L310 306 L310 307 L310 308 L310 309 L310 310 L310 310 L309 311 L309 312 L309 313 L309 314 L309 314 L309 315 L309 316 L309 317 L309 317 L309 318 L309 319 L308 320 L308 321 L308 321 L308 322 L308 323 L308 324 L308 324 L307 325 L307 326 L307 327 L307 327 L307 328 L306 329 L306 330 L306 330 L306 331 L306 332 L305 333 L305 333 L305 334 L305 335 L305 335 L304 336 L304 337 L304 338 L304 338 L303 339 L303 340 L303 340 L303 341 L302 342 L302 342 L302 343 L302 344 L301 344 L301 345 L301 346 L300 346 L300 347 L300 348 L300 348 L299 349 L299 350 L299 350 L298 351 L298 351 L298 352 L297 353 L297 353 L297 354 L296 354 L296 355 L296 356 L295 356 L295 357 L295 357 L294 358 L294 358 L294 359 L293 359 L293 360 L292 360 L292 361 L292 361 L291 362 L291 362 L291 363 L290 363 L290 364 L289 364 L289 365 L289 365 L288 366 L288 366 L288 367 L287 367 L287 368 L286 368 L286 368 L286 369 L285 369 L285 370 L284 370 L284 370 L283 371 L283 371 L283 371 L282 372 L282 372 L281 372 L281 373 L281 373 L280 373 L280 374 L279 374 L279 374 L279 375 L278 375 L278 375 L277 375 L277 376 L276 376 L276 376 L276 376 L275 377 L275 377 L274 377 L274 377 L274 377 L273 378 L273 378 L272 378 L272 378 L272 378 L271 379 L271 379 L270 379 L270 379 L269 379 L269 379 L269 379 L268 379 L268 379 L267 380 L267 380 L267 380 L266 380 L266 380 L266 380 L265 380 L265 380 L264 380 L264 380 L264 380 L263 380 L263 380 L262 380 L262 380 L262 380 L261 380 L261 380 L261 380 L260 380 L260 380 L260 380 L259 380 L259 380 L259 379 L258 379 L258 379 L258 379 L257 379 L257 379 L257 379 L256 379 L256 378 L256 378 L255 378 L255 378 L255 378 L255 378 L254 377 L254 377 L254 377 L253 377 L253 377 L253 376 L253 376 L252 376 L252 376 L252 375 L252 375 L251 375 L251 375 L251 374 L251 374 L250 374 L250 374 L250 373 L250 373 L250 373 L249 372 L249 372 L249 372 L249 371 L249 371 L248 371 L248 370 L248 370 L248 370 L248 369 L248 369 L248 369 L247 368 L247 368 L247 367 L247 367 L247 367 L247 366 L247 366 L247 365 L247 365 L247 365 L246 364 L246 364 L246 363 L246 363 L246 362 L246 362 L246 361 L246 361 L246 361 L246 360 L246 360 L246 359 L246 359 L246 358 L246 358 L246 357 L246 357 L246 356 L246 356 L246 355 L246 355 L246 354 L246 354 L246 353 L246 353 L247 352 L247 352 L247 351 L247 351 L247 350 L247 349 L247 349 L247 348 L247 348 L248 347 L248 347 L248 346 L248 346 L248 345 L248 345 L249 344 L249 343 L249 343 L249 342 L249 342 L250 341 L250 341 L250 340 L250 339 L250 339 L251 338 L251 338 L251 337 L251 337 L252 336 L252 335 L252 335 L253 334 L253 334 L253 333 L254 332 L254 332 L254 331 L254 331 L255 330 L255 330 L256 329 L256 328 L256 328 L257 327 L257 327 L257 326 L258 326 L258 325 L259 324 L259 324 L259 323 L260 323 L260 322 L261 321 L261 321 L261 320 L262 320 L262 319 L263 319 L263 318 L264 317 L264 317 L265 316 L265 316 L266 315 L266 315 L267 314 L267 314 L268 313 L268 312 L269 312 L269 311 L270 311 L270 310 L271 310 L271 309 L272 309 L272 308 L273 308 L274 307 L274 307 L275 306 L275 306 L276 305 L276 304 L277 304 L278 303 L278 303 L279 302 L279 302 L280 301 L281 301 L281 301 L282 300 L283 300 L283 299 L284 299 L285 298 L285 298 L286 297 L286 297 L287 296 L288 296 L288 295 L289 295 L290 295 L290 294 L291 294 L292 293 L292 293 L293 292 L294 292 L295 292 L295 291 L296 291 L297 290 L297 290 L298 290 L299 289 L299 289 L300 289 L301 288 L302 288 L302 287 L303 287 L304 287 L304 286 L305 286 L306 286 L307 285 L307 285 L308 285 L309 284 L310 284 L310 284 L311 284 L312 283 L312 283 L313 283 L314 282 L315 282 L315 282 L316 282 L317 281 L318 281 L318 281 L319 281 L320 281 L321 280 L321 280 L322 280 L323 280 L324 279 L324 279 L325 279 L326 279 L326 279 L327 279 L328 278 L329 278 L329 278 L330 278 L331 278 L332 278 L332 277 L333 277 L334 277 L334 277 L335 277 L336 277 L337 277 L337 277 L338 277 L339 277 L339 276 L340 276 L341 276 L342 276 L342 276 L343 276 L344 276 L344 276 L345 276 L346 276 L346 276 L347 276 L348 276 L348 276 L349 276 L350 276 L350 276 L351 276 L352 276 L352 276 L353 276 L354 276 L354 276 L355 276 L356 276 L356 276 L357 276 L358 276 L358 277 L359 277 L359 277 L360 277 L361 277 L361 277 L362 277 L362 277 L363 277 L364 277 L364 278 L365 278 L365 278 L366 278 L366 278 L367 278 L368 278 L368 279 L369 279 L369 279 L370 279 L370 279 L371 279 L371 280 L372 280 L372 280 L373 280 L373 280 L374 280 L374 281 L375 281 L375 281 L375 281 L376 282 L376 282 L377 282 L377 282 L378 282 L378 283 L378 283 L379 283 L379 283 L380 284 L380 284 L380 284 L381 285 L381 285 L382 285 L382 285 L382 286 L383 286 L383 286 L383 286 L384 287 L384 287 L384 287 L384 288 L385 288 L385 288 L385 288 L386 289 L386 289 L386 289 L386 290 L387 290 L387 290 L387 291 L387 291 L387 291 L388 292 L388 292 L388 292 L388 293 L388 293 L388 293 L389 294 L389 294 L389 294 L389 295 L389 295 L389 295 L389 296 L389 296 L390 296 L390 297 L390 297 L390 297 L390 298 L390 298 L390 298 L390 299 L390 299 L390 299 L390 300 L390 300" />
<path d="M444 300 L444 299 L444 298 L443 297 L443 296 L442 295 L442 294 L441 293 L440 293 L439 292 L438 291 L437 290 L435 289 L434 289 L432 288 L431 287 L429 287 L427 286 L425 286 L423 286 L421 285 L419 285 L416 285 L414 285 L411 284 L409 284 L406 284 L403 285 L401 285 L398 285 L395 285 L392 286 L389 286 L386 287 L383 288 L380 288 L376 289 L373 290 L370 291 L367 292 L363 293 L360 294 L357 296 L353 297 L350 299 L347 300 L343 302 L340 303 L337 305 L333 307 L330 309 L327 311 L324 313 L320 315 L317 317 L314 319 L311 322 L308 324 L305 326 L302 329 L299 331 L296 334 L294 336 L291 339 L288 342 L286 344 L283 347 L281 350 L278 353 L276 355 L274 358 L272 361 L270 364 L268 366 L266 369 L264 372 L263 375 L261 378 L260 380 L258 383 L257 386 L256 388 L254 391 L253 394 L252 396 L252 399 L251 401 L250 404 L249 406 L249 408 L249 410 L248 413 L248 415 L248 417 L248 419 L248 421 L248 422 L248 424 L248 426 L248 427 L249 428 L249 430 L250 431 L250 432 L251 433 L251 434 L252 435 L253 436 L254 436 L255 437 L256 437 L256 437 L257 437 L258 437 L259 437 L260 437 L262 437 L263 436 L264 436 L265 435 L266 434 L267 433 L268 432 L269 431 L270 430 L271 428 L273 427 L274 425 L275 423 L276 422 L277 420 L278 418 L279 415 L280 413 L280 411 L281 408 L282 406 L283 403 L283 400 L284 398 L285 395 L285 392 L286 389 L286 386 L286 383 L287 379 L287 376 L287 373 L287 369 L287 366 L287 362 L287 359 L287 355 L286 352 L286 348 L285 344 L285 341 L284 337 L284 333 L283 330 L282 326 L281 322 L280 318 L279 315 L278 311 L277 307 L276 304 L275 300 L273 297 L272 293 L270 290 L269 286 L267 283 L266 279 L264 276 L262 273 L260 269 L259 266 L257 263 L255 260 L253 257 L251 254 L249 252 L247 249 L245 246 L243 244 L240 241 L238 239 L236 237 L234 234 L232 232 L230 230 L227 229 L225 227 L223 225 L221 223 L219 222 L217 221 L215 219 L213 218 L211 217 L209 216 L207 215 L205 214 L203 214 L202 213 L200 213 L198 212 L197 212 L195 212 L194 212 L192 212 L191 212 L190 212 L189 212 L187 212 L187 213 L186 213 L185 214 L184 215 L184 215 L183 216 L183 217 L182 218 L182 219 L182 220 L182 221 L182 222 L182 224 L183 225 L183 226 L184 228 L184 229 L185 230 L186 232 L187 233 L188 235 L189 236 L190 238 L192 239 L193 241 L195 242 L197 244 L199 246 L201 247 L203 249 L205 250 L207 252 L210 253 L212 255 L215 256 L217 257 L220 259 L223 260 L226 261 L229 263 L232 264 L235 265 L238 266 L241 267 L245 268 L248 269 L252 270 L255 271 L259 272 L262 272 L266 273 L270 274 L273 274 L277 275 L281 275 L285 275 L289 276 L292 276 L296 276 L300 276 L304 276 L308 276 L311 276 L315 275 L319 275 L323 275 L327 274 L330 274 L334 273 L338 272 L341 272 L345 271 L348 270 L352 269 L355 268 L359 267 L362 266 L365 265 L368 264 L371 263 L374 261 L377 260 L380 259 L383 257 L385 256 L388 255 L390 253 L393 252 L395 250 L397 249 L399 247 L401 246 L403 244 L405 242 L407 241 L408 239 L410 238 L411 236 L412 235 L413 233 L414 232 L415 230 L416 229 L416 228 L417 226 L417 225 L418 224 L418 222 L418 221 L418 220 L418 219 L418 218 L417 217 L417 216 L416 215 L416 215 L415 214 L414 213 L413 213 L413 212 L411 212 L410 212 L409 212 L408 212 L406 212 L405 212 L403 212 L402 212 L400 213 L398 213 L397 214 L395 214 L393 215 L391 216 L389 217 L387 218 L385 219 L383 221 L381 222 L379 223 L377 225 L375 227 L373 229 L370 230 L368 232 L366 234 L364 237 L362 239 L360 241 L357 244 L355 246 L353 249 L351 252 L349 254 L347 257 L345 260 L343 263 L341 266 L340 269 L338 273 L336 276 L334 279 L333 283 L331 286 L330 290 L328 293 L327 297 L325 300 L324 304 L323 307 L322 311 L321 315 L320 318 L319 322 L318 326 L317 330 L316 333 L316 337 L315 341 L315 344 L314 348 L314 352 L313 355 L313 359 L313 362 L313 366 L313 369 L313 373 L313 376 L313 379 L314 383 L314 386 L314 389 L315 392 L315 395 L316 398 L317 400 L317 403 L318 406 L319 408 L320 411 L320 413 L321 415 L322 418 L323 420 L324 422 L325 423 L326 425 L327 427 L329 428 L330 430 L331 431 L332 432 L333 433 L334 434 L335 435 L336 436 L337 436 L338 437 L340 437 L341 437 L342 437 L343 437 L344 437 L344 437 L345 437 L346 436 L347 436 L348 435 L349 434 L349 433 L350 432 L350 431 L351 430 L351 428 L352 427 L352 426 L352 424 L352 422 L352 421 L352 419 L352 417 L352 415 L352 413 L351 410 L351 408 L351 406 L350 404 L349 401 L348 399 L348 396 L347 394 L346 391 L344 388 L343 386 L342 383 L340 380 L339 378 L337 375 L336 372 L334 369 L332 366 L330 364 L328 361 L326 358 L324 355 L322 353 L319 350 L317 347 L314 344 L312 342 L309 339 L306 336 L304 334 L301 331 L298 329 L295 326 L292 324 L289 322 L286 319 L283 317 L280 315 L276 313 L273 311 L270 309 L267 307 L263 305 L260 303 L257 302 L253 300 L250 299 L247 297 L243 296 L240 294 L237 293 L233 292 L230 291 L227 290 L224 289 L220 288 L217 288 L214 287 L211 286 L208 286 L205 285 L202 285 L199 285 L197 285 L194 284 L191 284 L189 284 L186 285 L184 285 L181 285 L179 285 L177 286 L175 286 L173 286 L171 287 L169 287 L168 288 L166 289 L165 289 L163 290 L162 291 L161 292 L160 293 L159 293 L158 294 L158 295 L157 296 L157 297 L156 298 L156 299 L156 300 L156 301 L156 302 L157 303 L157 304 L158 305 L158 306 L159 307 L160 307 L161 308 L162 309 L163 310 L165 311 L166 311 L168 312 L169 313 L171 313 L173 314 L175 314 L177 314 L179 315 L181 315 L184 315 L186 315 L189 316 L191 316 L194 316 L197 315 L199 315 L202 315 L205 315 L208 314 L211 314 L214 313 L217 312 L220 312 L224 311 L227 310 L230 309 L233 308 L237 307 L240 306 L243 304 L247 303 L250 301 L253 300 L257 298 L260 297 L263 295 L267 293 L270 291 L273 289 L276 287 L280 285 L283 283 L286 281 L289 278 L292 276 L295 274 L298 271 L301 269 L304 266 L306 264 L309 261 L312 258 L314 256 L317 253 L319 250 L322 247 L324 245 L326 242 L328 239 L330 236 L332 234 L334 231 L336 228 L337 225 L339 222 L340 220 L342 217 L343 214 L344 212 L346 209 L347 206 L348 204 L348 201 L349 199 L350 196 L351 194 L351 192 L351 190 L352 187 L352 185 L352 183 L352 181 L352 179 L352 178 L352 176 L352 174 L352 173 L351 172 L351 170 L350 169 L350 168 L349 167 L349 166 L348 165 L347 164 L346 164 L345 163 L344 163 L344 163 L343 163 L342 163 L341 163 L340 163 L338 163 L337 164 L336 164 L335 165 L334 166 L333 167 L332 168 L331 169 L330 170 L329 172 L327 173 L326 175 L325 177 L324 178 L323 180 L322 182 L321 185 L320 187 L320 189 L319 192 L318 194 L317 197 L317 200 L316 202 L315 205 L315 208 L314 211 L314 214 L314 217 L313 221 L313 224 L313 227 L313 231 L313 234 L313 238 L313 241 L313 245 L314 248 L314 252 L315 256 L315 259 L316 263 L316 267 L317 270 L318 274 L319 278 L320 282 L321 285 L322 289 L323 293 L324 296 L325 300 L327 303 L328 307 L330 310 L331 314 L333 317 L334 321 L336 324 L338 327 L340 331 L341 334 L343 337 L345 340 L347 343 L349 346 L351 348 L353 351 L355 354 L357 356 L360 359 L362 361 L364 363 L366 366 L368 368 L370 370 L373 371 L375 373 L377 375 L379 377 L381 378 L383 379 L385 381 L387 382 L389 383 L391 384 L393 385 L395 386 L397 386 L398 387 L400 387 L402 388 L403 388 L405 388 L406 388 L408 388 L409 388 L410 388 L411 388 L413 388 L413 387 L414 387 L415 386 L416 385 L416 385 L417 384 L417 383 L418 382 L418 381 L418 380 L418 379 L418 378 L418 376 L417 375 L417 374 L416 372 L416 371 L415 370 L414 368 L413 367 L412 365 L411 364 L410 362 L408 361 L407 359 L405 358 L403 356 L401 354 L399 353 L397 351 L395 350 L393 348 L390 347 L388 345 L385 344 L383 343 L380 341 L377 340 L374 339 L371 337 L368 336 L365 335 L362 334 L359 333 L355 332 L352 331 L348 330 L345 329 L341 328 L338 328 L334 327 L330 326 L327 326 L323 325 L319 325 L315 325 L311 324 L308 324 L304 324 L300 324 L296 324 L292 324 L289 324 L285 325 L281 325 L277 325 L273 326 L270 326 L266 327 L262 328 L259 328 L255 329 L252 330 L248 331 L245 332 L241 333 L238 334 L235 335 L232 336 L229 337 L226 339 L223 340 L220 341 L217 343 L215 344 L212 345 L210 347 L207 348 L205 350 L203 351 L201 353 L199 354 L197 356 L195 358 L193 359 L192 361 L190 362 L189 364 L188 365 L187 367 L186 368 L185 370 L184 371 L184 372 L183 374 L183 375 L182 376 L182 378 L182 379 L182 380 L182 381 L182 382 L183 383 L183 384 L184 385 L184 385 L185 386 L186 387 L187 387 L187 388 L189 388 L190 388 L191 388 L192 388 L194 388 L195 388 L197 388 L198 388 L200 387 L202 387 L203 386 L205 386 L207 385 L209 384 L211 383 L213 382 L215 381 L217 379 L219 378 L221 377 L223 375 L225 373 L227 371 L230 370 L232 368 L234 366 L236 363 L238 361 L240 359 L243 356 L245 354 L247 351 L249 348 L251 346 L253 343 L255 340 L257 337 L259 334 L260 331 L262 327 L264 324 L266 321 L267 317 L269 314 L270 310 L272 307 L273 303 L275 300 L276 296 L277 293 L278 289 L279 285 L280 282 L281 278 L282 274 L283 270 L284 267 L284 263 L285 259 L285 256 L286 252 L286 248 L287 245 L287 241 L287 238 L287 234 L287 231 L287 227 L287 224 L287 221 L286 217 L286 214 L286 211 L285 208 L285 205 L284 202 L283 200 L283 197 L282 194 L281 192 L280 189 L280 187 L279 185 L278 182 L277 180 L276 178 L275 177 L274 175 L273 173 L271 172 L270 170 L269 169 L268 168 L267 167 L266 166 L265 165 L264 164 L263 164 L262 163 L260 163 L259 163 L258 163 L257 163 L256 163 L256 163 L255 163 L254 164 L253 164 L252 165 L251 166 L251 167 L250 168 L250 169 L249 170 L249 172 L248 173 L248 174 L248 176 L248 178 L248 179 L248 181 L248 183 L248 185 L248 187 L249 190 L249 192 L249 194 L250 196 L251 199 L252 201 L252 204 L253 206 L254 209 L256 212 L257 214 L258 217 L260 220 L261 222 L263 225 L264 228 L266 231 L268 234 L270 236 L272 239 L274 242 L276 245 L278 247 L281 250 L283 253 L286 256 L288 258 L291 261 L294 264 L296 266 L299 269 L302 271 L305 274 L308 276 L311 278 L314 281 L317 283 L320 285 L324 287 L327 289 L330 291 L333 293 L337 295 L340 297 L343 298 L347 300 L350 301 L353 303 L357 304 L360 306 L363 307 L367 308 L370 309 L373 310 L376 311 L380 312 L383 312 L386 313 L389 314 L392 314 L395 315 L398 315 L401 315 L403 315 L406 316 L409 316 L411 316 L414 315 L416 315 L419 315 L421 315 L423 314 L425 314 L427 314 L429 313 L431 313 L432 312 L434 311 L435 311 L437 310 L438 309 L439 308 L440 307 L441 307 L442 306 L442 305 L443 304 L443 303 L444 302 L444 301 L444 300" />
<circle cx="300" cy="300" r="252" />
<circle cx="300" cy="300" r="248" />
</svg>