<svg xmlns="http://www.w3.org/2000/svg" viewBox="0 0 704 336">
<g fill="#C29B40" opacity="0.28">
<circle cx="136" cy="8" r="3.2"/>
<circle cx="152" cy="8" r="3.2"/>
<circle cx="488" cy="8" r="3.2"/>
<circle cx="504" cy="8" r="3.2"/>
<circle cx="552" cy="8" r="3.2"/>
<circle cx="568" cy="8" r="3.2"/>
<circle cx="584" cy="8" r="3.2"/>
<circle cx="600" cy="8" r="3.2"/>
<circle cx="32" cy="24" r="3.2"/>
<circle cx="48" cy="24" r="3.2"/>
<circle cx="64" cy="24" r="3.2"/>
<circle cx="80" cy="24" r="3.2"/>
<circle cx="144" cy="24" r="3.2"/>
<circle cx="160" cy="24" r="3.2"/>
<circle cx="176" cy="24" r="3.2"/>
<circle cx="192" cy="24" r="3.2"/>
<circle cx="208" cy="24" r="3.2"/>
<circle cx="480" cy="24" r="3.2"/>
<circle cx="496" cy="24" r="3.2"/>
<circle cx="512" cy="24" r="3.2"/>
<circle cx="528" cy="24" r="3.2"/>
<circle cx="544" cy="24" r="3.2"/>
<circle cx="560" cy="24" r="3.2"/>
<circle cx="576" cy="24" r="3.2"/>
<circle cx="592" cy="24" r="3.2"/>
<circle cx="608" cy="24" r="3.2"/>
<circle cx="624" cy="24" r="3.2"/>
<circle cx="640" cy="24" r="3.2"/>
<circle cx="656" cy="24" r="3.2"/>
<circle cx="672" cy="24" r="3.2"/>
<circle cx="24" cy="40" r="3.2"/>
<circle cx="40" cy="40" r="3.2"/>
<circle cx="56" cy="40" r="3.2"/>
<circle cx="72" cy="40" r="3.2"/>
<circle cx="88" cy="40" r="3.2"/>
<circle cx="104" cy="40" r="3.2"/>
<circle cx="120" cy="40" r="3.2"/>
<circle cx="136" cy="40" r="3.2"/>
<circle cx="152" cy="40" r="3.2"/>
<circle cx="168" cy="40" r="3.2"/>
<circle cx="184" cy="40" r="3.2"/>
<circle cx="200" cy="40" r="3.2"/>
<circle cx="216" cy="40" r="3.2"/>
<circle cx="232" cy="40" r="3.2"/>
<circle cx="248" cy="40" r="3.2"/>
<circle cx="264" cy="40" r="3.2"/>
<circle cx="280" cy="40" r="3.2"/>
<circle cx="296" cy="40" r="3.2"/>
<circle cx="312" cy="40" r="3.2"/>
<circle cx="328" cy="40" r="3.2"/>
<circle cx="344" cy="40" r="3.2"/>
<circle cx="360" cy="40" r="3.2"/>
<circle cx="376" cy="40" r="3.2"/>
<circle cx="392" cy="40" r="3.2"/>
<circle cx="408" cy="40" r="3.2"/>
<circle cx="424" cy="40" r="3.2"/>
<circle cx="440" cy="40" r="3.2"/>
<circle cx="456" cy="40" r="3.2"/>
<circle cx="472" cy="40" r="3.2"/>
<circle cx="488" cy="40" r="3.2"/>
<circle cx="504" cy="40" r="3.2"/>
<circle cx="520" cy="40" r="3.2"/>
<circle cx="536" cy="40" r="3.2"/>
<circle cx="552" cy="40" r="3.2"/>
<circle cx="568" cy="40" r="3.2"/>
<circle cx="584" cy="40" r="3.2"/>
<circle cx="600" cy="40" r="3.2"/>
<circle cx="616" cy="40" r="3.2"/>
<circle cx="632" cy="40" r="3.2"/>
<circle cx="648" cy="40" r="3.2"/>
<circle cx="664" cy="40" r="3.2"/>
<circle cx="680" cy="40" r="3.2"/>
<circle cx="696" cy="40" r="3.2"/>
<circle cx="32" cy="56" r="3.2"/>
<circle cx="48" cy="56" r="3.2"/>
<circle cx="64" cy="56" r="3.2"/>
<circle cx="80" cy="56" r="3.2"/>
<circle cx="96" cy="56" r="3.2"/>
<circle cx="112" cy="56" r="3.2"/>
<circle cx="128" cy="56" r="3.2"/>
<circle cx="144" cy="56" r="3.2"/>
<circle cx="160" cy="56" r="3.2"/>
<circle cx="176" cy="56" r="3.2"/>
<circle cx="192" cy="56" r="3.2"/>
<circle cx="208" cy="56" r="3.2"/>
<circle cx="224" cy="56" r="3.2"/>
<circle cx="240" cy="56" r="3.2"/>
<circle cx="256" cy="56" r="3.2"/>
<circle cx="272" cy="56" r="3.2"/>
<circle cx="288" cy="56" r="3.2"/>
<circle cx="304" cy="56" r="3.2"/>
<circle cx="320" cy="56" r="3.2"/>
<circle cx="336" cy="56" r="3.2"/>
<circle cx="352" cy="56" r="3.2"/>
<circle cx="368" cy="56" r="3.2"/>
<circle cx="384" cy="56" r="3.2"/>
<circle cx="400" cy="56" r="3.2"/>
<circle cx="416" cy="56" r="3.2"/>
<circle cx="432" cy="56" r="3.2"/>
<circle cx="448" cy="56" r="3.2"/>
<circle cx="464" cy="56" r="3.2"/>
<circle cx="480" cy="56" r="3.2"/>
<circle cx="496" cy="56" r="3.2"/>
<circle cx="528" cy="56" r="3.2"/>
<circle cx="544" cy="56" r="3.2"/>
<circle cx="560" cy="56" r="3.2"/>
<circle cx="576" cy="56" r="3.2"/>
<circle cx="592" cy="56" r="3.2"/>
<circle cx="608" cy="56" r="3.2"/>
<circle cx="624" cy="56" r="3.2"/>
<circle cx="640" cy="56" r="3.2"/>
<circle cx="656" cy="56" r="3.2"/>
<circle cx="672" cy="56" r="3.2"/>
<circle cx="24" cy="72" r="3.2"/>
<circle cx="40" cy="72" r="3.2"/>
<circle cx="56" cy="72" r="3.2"/>
<circle cx="72" cy="72" r="3.2"/>
<circle cx="88" cy="72" r="3.2"/>
<circle cx="104" cy="72" r="3.2"/>
<circle cx="120" cy="72" r="3.2"/>
<circle cx="136" cy="72" r="3.2"/>
<circle cx="152" cy="72" r="3.2"/>
<circle cx="168" cy="72" r="3.2"/>
<circle cx="184" cy="72" r="3.2"/>
<circle cx="200" cy="72" r="3.2"/>
<circle cx="216" cy="72" r="3.2"/>
<circle cx="232" cy="72" r="3.2"/>
<circle cx="248" cy="72" r="3.2"/>
<circle cx="264" cy="72" r="3.2"/>
<circle cx="280" cy="72" r="3.2"/>
<circle cx="296" cy="72" r="3.2"/>
<circle cx="312" cy="72" r="3.2"/>
<circle cx="328" cy="72" r="3.2"/>
<circle cx="344" cy="72" r="3.2"/>
<circle cx="360" cy="72" r="3.2"/>
<circle cx="376" cy="72" r="3.2"/>
<circle cx="392" cy="72" r="3.2"/>
<circle cx="408" cy="72" r="3.2"/>
<circle cx="424" cy="72" r="3.2"/>
<circle cx="440" cy="72" r="3.2"/>
<circle cx="456" cy="72" r="3.2"/>
<circle cx="472" cy="72" r="3.2"/>
<circle cx="504" cy="72" r="3.2"/>
<circle cx="520" cy="72" r="3.2"/>
<circle cx="536" cy="72" r="3.2"/>
<circle cx="552" cy="72" r="3.2"/>
<circle cx="568" cy="72" r="3.2"/>
<circle cx="584" cy="72" r="3.2"/>
<circle cx="600" cy="72" r="3.2"/>
<circle cx="616" cy="72" r="3.2"/>
<circle cx="632" cy="72" r="3.2"/>
<circle cx="648" cy="72" r="3.2"/>
<circle cx="664" cy="72" r="3.2"/>
<circle cx="48" cy="88" r="3.2"/>
<circle cx="64" cy="88" r="3.2"/>
<circle cx="80" cy="88" r="3.2"/>
<circle cx="96" cy="88" r="3.2"/>
<circle cx="112" cy="88" r="3.2"/>
<circle cx="128" cy="88" r="3.2"/>
<circle cx="144" cy="88" r="3.2"/>
<circle cx="160" cy="88" r="3.2"/>
<circle cx="176" cy="88" r="3.2"/>
<circle cx="192" cy="88" r="3.2"/>
<circle cx="208" cy="88" r="3.2"/>
<circle cx="224" cy="88" r="3.2"/>
<circle cx="240" cy="88" r="3.2"/>
<circle cx="256" cy="88" r="3.2"/>
<circle cx="272" cy="88" r="3.2"/>
<circle cx="288" cy="88" r="3.2"/>
<circle cx="304" cy="88" r="3.2"/>
<circle cx="320" cy="88" r="3.2"/>
<circle cx="336" cy="88" r="3.2"/>
<circle cx="352" cy="88" r="3.2"/>
<circle cx="368" cy="88" r="3.2"/>
<circle cx="384" cy="88" r="3.2"/>
<circle cx="400" cy="88" r="3.2"/>
<circle cx="416" cy="88" r="3.2"/>
<circle cx="432" cy="88" r="3.2"/>
<circle cx="448" cy="88" r="3.2"/>
<circle cx="464" cy="88" r="3.2"/>
<circle cx="480" cy="88" r="3.2"/>
<circle cx="512" cy="88" r="3.2"/>
<circle cx="528" cy="88" r="3.2"/>
<circle cx="544" cy="88" r="3.2"/>
<circle cx="560" cy="88" r="3.2"/>
<circle cx="576" cy="88" r="3.2"/>
<circle cx="592" cy="88" r="3.2"/>
<circle cx="608" cy="88" r="3.2"/>
<circle cx="624" cy="88" r="3.2"/>
<circle cx="640" cy="88" r="3.2"/>
<circle cx="40" cy="104" r="3.2"/>
<circle cx="56" cy="104" r="3.2"/>
<circle cx="72" cy="104" r="3.2"/>
<circle cx="88" cy="104" r="3.2"/>
<circle cx="104" cy="104" r="3.2"/>
<circle cx="120" cy="104" r="3.2"/>
<circle cx="136" cy="104" r="3.2"/>
<circle cx="152" cy="104" r="3.2"/>
<circle cx="168" cy="104" r="3.2"/>
<circle cx="184" cy="104" r="3.2"/>
<circle cx="200" cy="104" r="3.2"/>
<circle cx="216" cy="104" r="3.2"/>
<circle cx="232" cy="104" r="3.2"/>
<circle cx="248" cy="104" r="3.2"/>
<circle cx="264" cy="104" r="3.2"/>
<circle cx="280" cy="104" r="3.2"/>
<circle cx="296" cy="104" r="3.2"/>
<circle cx="312" cy="104" r="3.2"/>
<circle cx="328" cy="104" r="3.2"/>
<circle cx="344" cy="104" r="3.2"/>
<circle cx="360" cy="104" r="3.2"/>
<circle cx="376" cy="104" r="3.2"/>
<circle cx="392" cy="104" r="3.2"/>
<circle cx="408" cy="104" r="3.2"/>
<circle cx="424" cy="104" r="3.2"/>
<circle cx="440" cy="104" r="3.2"/>
<circle cx="456" cy="104" r="3.2"/>
<circle cx="472" cy="104" r="3.2"/>
<circle cx="488" cy="104" r="3.2"/>
<circle cx="504" cy="104" r="3.2"/>
<circle cx="520" cy="104" r="3.2"/>
<circle cx="536" cy="104" r="3.2"/>
<circle cx="552" cy="104" r="3.2"/>
<circle cx="568" cy="104" r="3.2"/>
<circle cx="584" cy="104" r="3.2"/>
<circle cx="600" cy="104" r="3.2"/>
<circle cx="48" cy="120" r="3.2"/>
<circle cx="64" cy="120" r="3.2"/>
<circle cx="80" cy="120" r="3.2"/>
<circle cx="96" cy="120" r="3.2"/>
<circle cx="112" cy="120" r="3.2"/>
<circle cx="128" cy="120" r="3.2"/>
<circle cx="144" cy="120" r="3.2"/>
<circle cx="160" cy="120" r="3.2"/>
<circle cx="176" cy="120" r="3.2"/>
<circle cx="192" cy="120" r="3.2"/>
<circle cx="208" cy="120" r="3.2"/>
<circle cx="224" cy="120" r="3.2"/>
<circle cx="240" cy="120" r="3.2"/>
<circle cx="256" cy="120" r="3.2"/>
<circle cx="272" cy="120" r="3.2"/>
<circle cx="288" cy="120" r="3.2"/>
<circle cx="304" cy="120" r="3.2"/>
<circle cx="320" cy="120" r="3.2"/>
<circle cx="336" cy="120" r="3.2"/>
<circle cx="352" cy="120" r="3.2"/>
<circle cx="368" cy="120" r="3.2"/>
<circle cx="384" cy="120" r="3.2"/>
<circle cx="400" cy="120" r="3.2"/>
<circle cx="416" cy="120" r="3.2"/>
<circle cx="432" cy="120" r="3.2"/>
<circle cx="448" cy="120" r="3.2"/>
<circle cx="464" cy="120" r="3.2"/>
<circle cx="480" cy="120" r="3.2"/>
<circle cx="496" cy="120" r="3.2"/>
<circle cx="512" cy="120" r="3.2"/>
<circle cx="528" cy="120" r="3.2"/>
<circle cx="544" cy="120" r="3.2"/>
<circle cx="560" cy="120" r="3.2"/>
<circle cx="576" cy="120" r="3.2"/>
<circle cx="592" cy="120" r="3.2"/>
<circle cx="56" cy="136" r="3.2"/>
<circle cx="72" cy="136" r="3.2"/>
<circle cx="88" cy="136" r="3.2"/>
<circle cx="104" cy="136" r="3.2"/>
<circle cx="120" cy="136" r="3.2"/>
<circle cx="136" cy="136" r="3.2"/>
<circle cx="152" cy="136" r="3.2"/>
<circle cx="168" cy="136" r="3.2"/>
<circle cx="184" cy="136" r="3.2"/>
<circle cx="200" cy="136" r="3.2"/>
<circle cx="216" cy="136" r="3.2"/>
<circle cx="232" cy="136" r="3.2"/>
<circle cx="248" cy="136" r="3.2"/>
<circle cx="264" cy="136" r="3.2"/>
<circle cx="280" cy="136" r="3.2"/>
<circle cx="296" cy="136" r="3.2"/>
<circle cx="312" cy="136" r="3.2"/>
<circle cx="328" cy="136" r="3.2"/>
<circle cx="344" cy="136" r="3.2"/>
<circle cx="360" cy="136" r="3.2"/>
<circle cx="376" cy="136" r="3.2"/>
<circle cx="392" cy="136" r="3.2"/>
<circle cx="408" cy="136" r="3.2"/>
<circle cx="424" cy="136" r="3.2"/>
<circle cx="440" cy="136" r="3.2"/>
<circle cx="456" cy="136" r="3.2"/>
<circle cx="472" cy="136" r="3.2"/>
<circle cx="488" cy="136" r="3.2"/>
<circle cx="504" cy="136" r="3.2"/>
<circle cx="520" cy="136" r="3.2"/>
<circle cx="536" cy="136" r="3.2"/>
<circle cx="552" cy="136" r="3.2"/>
<circle cx="568" cy="136" r="3.2"/>
<circle cx="584" cy="136" r="3.2"/>
<circle cx="64" cy="152" r="3.2"/>
<circle cx="80" cy="152" r="3.2"/>
<circle cx="96" cy="152" r="3.2"/>
<circle cx="112" cy="152" r="3.2"/>
<circle cx="128" cy="152" r="3.2"/>
<circle cx="144" cy="152" r="3.2"/>
<circle cx="160" cy="152" r="3.2"/>
<circle cx="176" cy="152" r="3.2"/>
<circle cx="192" cy="152" r="3.2"/>
<circle cx="208" cy="152" r="3.2"/>
<circle cx="224" cy="152" r="3.2"/>
<circle cx="240" cy="152" r="3.2"/>
<circle cx="256" cy="152" r="3.2"/>
<circle cx="272" cy="152" r="3.2"/>
<circle cx="288" cy="152" r="3.2"/>
<circle cx="304" cy="152" r="3.2"/>
<circle cx="320" cy="152" r="3.2"/>
<circle cx="336" cy="152" r="3.2"/>
<circle cx="352" cy="152" r="3.2"/>
<circle cx="368" cy="152" r="3.2"/>
<circle cx="384" cy="152" r="3.2"/>
<circle cx="400" cy="152" r="3.2"/>
<circle cx="416" cy="152" r="3.2"/>
<circle cx="432" cy="152" r="3.2"/>
<circle cx="448" cy="152" r="3.2"/>
<circle cx="464" cy="152" r="3.2"/>
<circle cx="480" cy="152" r="3.2"/>
<circle cx="496" cy="152" r="3.2"/>
<circle cx="512" cy="152" r="3.2"/>
<circle cx="528" cy="152" r="3.2"/>
<circle cx="544" cy="152" r="3.2"/>
<circle cx="560" cy="152" r="3.2"/>
<circle cx="576" cy="152" r="3.2"/>
<circle cx="592" cy="152" r="3.2"/>
<circle cx="608" cy="152" r="3.2"/>
<circle cx="72" cy="168" r="3.2"/>
<circle cx="88" cy="168" r="3.2"/>
<circle cx="104" cy="168" r="3.2"/>
<circle cx="120" cy="168" r="3.2"/>
<circle cx="136" cy="168" r="3.2"/>
<circle cx="152" cy="168" r="3.2"/>
<circle cx="168" cy="168" r="3.2"/>
<circle cx="184" cy="168" r="3.2"/>
<circle cx="200" cy="168" r="3.2"/>
<circle cx="216" cy="168" r="3.2"/>
<circle cx="232" cy="168" r="3.2"/>
<circle cx="248" cy="168" r="3.2"/>
<circle cx="264" cy="168" r="3.2"/>
<circle cx="280" cy="168" r="3.2"/>
<circle cx="296" cy="168" r="3.2"/>
<circle cx="312" cy="168" r="3.2"/>
<circle cx="328" cy="168" r="3.2"/>
<circle cx="344" cy="168" r="3.2"/>
<circle cx="360" cy="168" r="3.2"/>
<circle cx="376" cy="168" r="3.2"/>
<circle cx="392" cy="168" r="3.2"/>
<circle cx="408" cy="168" r="3.2"/>
<circle cx="424" cy="168" r="3.2"/>
<circle cx="440" cy="168" r="3.2"/>
<circle cx="456" cy="168" r="3.2"/>
<circle cx="472" cy="168" r="3.2"/>
<circle cx="488" cy="168" r="3.2"/>
<circle cx="504" cy="168" r="3.2"/>
<circle cx="520" cy="168" r="3.2"/>
<circle cx="536" cy="168" r="3.2"/>
<circle cx="552" cy="168" r="3.2"/>
<circle cx="568" cy="168" r="3.2"/>
<circle cx="584" cy="168" r="3.2"/>
<circle cx="600" cy="168" r="3.2"/>
<circle cx="80" cy="184" r="3.2"/>
<circle cx="96" cy="184" r="3.2"/>
<circle cx="112" cy="184" r="3.2"/>
<circle cx="128" cy="184" r="3.2"/>
<circle cx="144" cy="184" r="3.2"/>
<circle cx="160" cy="184" r="3.2"/>
<circle cx="176" cy="184" r="3.2"/>
<circle cx="192" cy="184" r="3.2"/>
<circle cx="208" cy="184" r="3.2"/>
<circle cx="224" cy="184" r="3.2"/>
<circle cx="240" cy="184" r="3.2"/>
<circle cx="256" cy="184" r="3.2"/>
<circle cx="272" cy="184" r="3.2"/>
<circle cx="288" cy="184" r="3.2"/>
<circle cx="304" cy="184" r="3.2"/>
<circle cx="320" cy="184" r="3.2"/>
<circle cx="336" cy="184" r="3.2"/>
<circle cx="352" cy="184" r="3.2"/>
<circle cx="368" cy="184" r="3.2"/>
<circle cx="384" cy="184" r="3.2"/>
<circle cx="400" cy="184" r="3.2"/>
<circle cx="416" cy="184" r="3.2"/>
<circle cx="432" cy="184" r="3.2"/>
<circle cx="448" cy="184" r="3.2"/>
<circle cx="464" cy="184" r="3.2"/>
<circle cx="480" cy="184" r="3.2"/>
<circle cx="496" cy="184" r="3.2"/>
<circle cx="512" cy="184" r="3.2"/>
<circle cx="528" cy="184" r="3.2"/>
<circle cx="544" cy="184" r="3.2"/>
<circle cx="560" cy="184" r="3.2"/>
<circle cx="576" cy="184" r="3.2"/>
<circle cx="592" cy="184" r="3.2"/>
<circle cx="88" cy="200" r="3.2"/>
<circle cx="104" cy="200" r="3.2"/>
<circle cx="120" cy="200" r="3.2"/>
<circle cx="136" cy="200" r="3.2"/>
<circle cx="152" cy="200" r="3.2"/>
<circle cx="168" cy="200" r="3.2"/>
<circle cx="184" cy="200" r="3.2"/>
<circle cx="200" cy="200" r="3.2"/>
<circle cx="216" cy="200" r="3.2"/>
<circle cx="232" cy="200" r="3.2"/>
<circle cx="248" cy="200" r="3.2"/>
<circle cx="264" cy="200" r="3.2"/>
<circle cx="280" cy="200" r="3.2"/>
<circle cx="296" cy="200" r="3.2"/>
<circle cx="312" cy="200" r="3.2"/>
<circle cx="328" cy="200" r="3.2"/>
<circle cx="344" cy="200" r="3.2"/>
<circle cx="360" cy="200" r="3.2"/>
<circle cx="376" cy="200" r="3.2"/>
<circle cx="392" cy="200" r="3.2"/>
<circle cx="408" cy="200" r="3.2"/>
<circle cx="424" cy="200" r="3.2"/>
<circle cx="440" cy="200" r="3.2"/>
<circle cx="456" cy="200" r="3.2"/>
<circle cx="472" cy="200" r="3.2"/>
<circle cx="488" cy="200" r="3.2"/>
<circle cx="504" cy="200" r="3.2"/>
<circle cx="520" cy="200" r="3.2"/>
<circle cx="536" cy="200" r="3.2"/>
<circle cx="552" cy="200" r="3.2"/>
<circle cx="568" cy="200" r="3.2"/>
<circle cx="112" cy="216" r="3.2"/>
<circle cx="128" cy="216" r="3.2"/>
<circle cx="144" cy="216" r="3.2"/>
<circle cx="160" cy="216" r="3.2"/>
<circle cx="176" cy="216" r="3.2"/>
<circle cx="192" cy="216" r="3.2"/>
<circle cx="208" cy="216" r="3.2"/>
<circle cx="224" cy="216" r="3.2"/>
<circle cx="240" cy="216" r="3.2"/>
<circle cx="256" cy="216" r="3.2"/>
<circle cx="288" cy="216" r="3.2"/>
<circle cx="304" cy="216" r="3.2"/>
<circle cx="320" cy="216" r="3.2"/>
<circle cx="336" cy="216" r="3.2"/>
<circle cx="352" cy="216" r="3.2"/>
<circle cx="368" cy="216" r="3.2"/>
<circle cx="384" cy="216" r="3.2"/>
<circle cx="400" cy="216" r="3.2"/>
<circle cx="416" cy="216" r="3.2"/>
<circle cx="432" cy="216" r="3.2"/>
<circle cx="448" cy="216" r="3.2"/>
<circle cx="464" cy="216" r="3.2"/>
<circle cx="480" cy="216" r="3.2"/>
<circle cx="496" cy="216" r="3.2"/>
<circle cx="512" cy="216" r="3.2"/>
<circle cx="528" cy="216" r="3.2"/>
<circle cx="544" cy="216" r="3.2"/>
<circle cx="560" cy="216" r="3.2"/>
<circle cx="120" cy="232" r="3.2"/>
<circle cx="136" cy="232" r="3.2"/>
<circle cx="152" cy="232" r="3.2"/>
<circle cx="168" cy="232" r="3.2"/>
<circle cx="184" cy="232" r="3.2"/>
<circle cx="200" cy="232" r="3.2"/>
<circle cx="216" cy="232" r="3.2"/>
<circle cx="232" cy="232" r="3.2"/>
<circle cx="248" cy="232" r="3.2"/>
<circle cx="296" cy="232" r="3.2"/>
<circle cx="312" cy="232" r="3.2"/>
<circle cx="328" cy="232" r="3.2"/>
<circle cx="344" cy="232" r="3.2"/>
<circle cx="360" cy="232" r="3.2"/>
<circle cx="376" cy="232" r="3.2"/>
<circle cx="392" cy="232" r="3.2"/>
<circle cx="408" cy="232" r="3.2"/>
<circle cx="424" cy="232" r="3.2"/>
<circle cx="440" cy="232" r="3.2"/>
<circle cx="456" cy="232" r="3.2"/>
<circle cx="472" cy="232" r="3.2"/>
<circle cx="488" cy="232" r="3.2"/>
<circle cx="504" cy="232" r="3.2"/>
<circle cx="520" cy="232" r="3.2"/>
<circle cx="536" cy="232" r="3.2"/>
<circle cx="144" cy="248" r="3.2"/>
<circle cx="160" cy="248" r="3.2"/>
<circle cx="176" cy="248" r="3.2"/>
<circle cx="192" cy="248" r="3.2"/>
<circle cx="208" cy="248" r="3.2"/>
<circle cx="224" cy="248" r="3.2"/>
<circle cx="320" cy="248" r="3.2"/>
<circle cx="336" cy="248" r="3.2"/>
<circle cx="352" cy="248" r="3.2"/>
<circle cx="368" cy="248" r="3.2"/>
<circle cx="384" cy="248" r="3.2"/>
<circle cx="400" cy="248" r="3.2"/>
<circle cx="416" cy="248" r="3.2"/>
<circle cx="432" cy="248" r="3.2"/>
<circle cx="448" cy="248" r="3.2"/>
<circle cx="464" cy="248" r="3.2"/>
<circle cx="480" cy="248" r="3.2"/>
<circle cx="496" cy="248" r="3.2"/>
<circle cx="512" cy="248" r="3.2"/>
<circle cx="152" cy="264" r="3.2"/>
<circle cx="168" cy="264" r="3.2"/>
<circle cx="184" cy="264" r="3.2"/>
<circle cx="200" cy="264" r="3.2"/>
<circle cx="216" cy="264" r="3.2"/>
<circle cx="328" cy="264" r="3.2"/>
<circle cx="344" cy="264" r="3.2"/>
<circle cx="360" cy="264" r="3.2"/>
<circle cx="376" cy="264" r="3.2"/>
<circle cx="392" cy="264" r="3.2"/>
<circle cx="408" cy="264" r="3.2"/>
<circle cx="424" cy="264" r="3.2"/>
<circle cx="440" cy="264" r="3.2"/>
<circle cx="456" cy="264" r="3.2"/>
<circle cx="488" cy="264" r="3.2"/>
<circle cx="504" cy="264" r="3.2"/>
<circle cx="520" cy="264" r="3.2"/>
<circle cx="176" cy="280" r="3.2"/>
<circle cx="192" cy="280" r="3.2"/>
<circle cx="208" cy="280" r="3.2"/>
<circle cx="224" cy="280" r="3.2"/>
<circle cx="352" cy="280" r="3.2"/>
<circle cx="368" cy="280" r="3.2"/>
<circle cx="384" cy="280" r="3.2"/>
<circle cx="400" cy="280" r="3.2"/>
<circle cx="416" cy="280" r="3.2"/>
<circle cx="432" cy="280" r="3.2"/>
<circle cx="448" cy="280" r="3.2"/>
<circle cx="512" cy="280" r="3.2"/>
<circle cx="528" cy="280" r="3.2"/>
<circle cx="544" cy="280" r="3.2"/>
<circle cx="184" cy="296" r="3.2"/>
<circle cx="200" cy="296" r="3.2"/>
<circle cx="216" cy="296" r="3.2"/>
<circle cx="360" cy="296" r="3.2"/>
<circle cx="376" cy="296" r="3.2"/>
<circle cx="392" cy="296" r="3.2"/>
<circle cx="408" cy="296" r="3.2"/>
<circle cx="424" cy="296" r="3.2"/>
<circle cx="520" cy="296" r="3.2"/>
<circle cx="536" cy="296" r="3.2"/>
<circle cx="552" cy="296" r="3.2"/>
<circle cx="208" cy="312" r="3.2"/>
<circle cx="224" cy="312" r="3.2"/>
<circle cx="384" cy="312" r="3.2"/>
<circle cx="400" cy="312" r="3.2"/>
<circle cx="416" cy="312" r="3.2"/>
<circle cx="544" cy="312" r="3.2"/>
<circle cx="560" cy="312" r="3.2"/>
<circle cx="568" cy="328" r="3.2"/>
</g>
<g fill="#C29B40">
<circle cx="488" cy="72" r="5.4" class="hq"/>
<circle cx="496" cy="88" r="5.4" class="hq"/>
</g>
</svg>